STARTFONT 2.1
FONT -xmbdfed-Unknown-Medium-R-Normal--15-120-90-90-P-100-FontSpecific-0
SIZE 12 90 90
FONTBOUNDINGBOX 36 34 1 -5
STARTPROPERTIES 9
POINT_SIZE 120
PIXEL_SIZE 15
RESOLUTION_X 90
RESOLUTION_Y 90
FONT_ASCENT 12
FONT_DESCENT 3
AVERAGE_WIDTH 100
SPACING "P"
_XMBDFED_INFO "Edited with xmbdfed 4.5."
ENDPROPERTIES
CHARS 338
STARTCHAR char0
ENCODING 0
SWIDTH 4800 0
DWIDTH 72 0
BBX 15 19 2 2
BITMAP
001C
1C1E
7C1E
3C1E
3C1E
7C1E
781E
783C
783C
783C
F07C
F078
F078
F070
F0F0
F0E0
7180
7F00
1C00
ENDCHAR
STARTCHAR char1
ENCODING 1
SWIDTH 6666 0
DWIDTH 100 0
BBX 22 18 2 2
BITMAP
000C00
003E00
1C1E00
3C1E00
3C1E00
3C1E00
3C3FFC
783E7C
783C3C
783C3C
783C1C
F87C00
F07800
F07000
78E000
79C000
3F8000
0E0000
ENDCHAR
STARTCHAR char2
ENCODING 2
SWIDTH 5066 0
DWIDTH 76 0
BBX 16 23 2 -1
BITMAP
0038
7078
F078
F0F8
F0F0
F0F0
F1F0
F9E0
FFE0
63C0
07C0
0780
0F80
0F00
0F00
1F00
1E00
3E00
3E06
3E1E
3FFE
003E
001F
ENDCHAR
STARTCHAR char2
ENCODING 3
SWIDTH 1000 0
DWIDTH 15 0
BBX 14 21 1 1
BITMAP
007C
F83C
787C
787C
7878
7878
78F8
7CF0
7FF0
31E0
03E0
03C0
07C0
0780
0780
0F80
0F00
1F00
1F00
1E00
1F00
ENDCHAR
STARTCHAR char4
ENCODING 4
SWIDTH 5066 0
DWIDTH 76 0
BBX 16 20 2 1
BITMAP
007C
F83C
787C
787C
7878
78F8
78F0
7FF0
31E0
03E0
03C0
07C0
0780
0F87
0FFF
1F0F
1E0F
3E1E
3EF0
1F80
ENDCHAR
STARTCHAR char5
ENCODING 5
SWIDTH 4533 0
DWIDTH 68 0
BBX 14 17 2 3
BITMAP
007C
783C
F83C
F03C
F03C
F03C
F03C
F83C
783C
783C
783C
787C
F878
F078
F070
79E0
7F80
ENDCHAR
STARTCHAR char6
ENCODING 6
SWIDTH 7466 0
DWIDTH 112 0
BBX 21 19 5 2
BITMAP
0001E0
003FF0
007CF8
F87CF8
7878F0
7878E0
707F80
F07800
F07800
F07800
F07800
F07800
F07800
F07800
F0F000
F0F000
F0E000
71C000
3F0000
ENDCHAR
STARTCHAR char8
ENCODING 8
SWIDTH 5066 0
DWIDTH 76 0
BBX 16 20 2 1
BITMAP
0080
0780
07C0
03C0
07F0
0FF0
1FF8
3E78
3C78
3C3C
783C
783C
783C
783C
F03C
F03C
F03C
F03C
F83E
7C1F
ENDCHAR
STARTCHAR char9
ENCODING 9
SWIDTH 6666 0
DWIDTH 100 0
BBX 22 20 2 1
BITMAP
018000
078000
07C000
03C000
07E000
1FF000
1FF000
3E7838
3C7FF8
787CF8
78787C
78783C
F87C00
F07C00
F03C00
F03C00
F03C00
F83C00
F83E00
701C00
ENDCHAR
STARTCHAR char10
ENCODING 10
SWIDTH 6933 0
DWIDTH 104 0
BBX 23 21 2 -1
BITMAP
078000
078000
03C000
07E000
0FF000
1FF000
1E7800
3C7800
3C7800
787C00
783C00
783C00
F03C00
F03C00
F03C00
F03C00
F03C04
F83E3C
783FFC
00003E
00003E
ENDCHAR
STARTCHAR char11
ENCODING 11
SWIDTH 4533 0
DWIDTH 68 0
BBX 14 19 2 1
BITMAP
0F00
0F80
0780
0FC0
1FE0
3FE0
7CF0
78F0
F8F0
F0F0
F0F0
F070
F078
F878
0078
0078
0078
0078
007C
ENDCHAR
STARTCHAR char12
ENCODING 12
SWIDTH 6133 0
DWIDTH 92 0
BBX 20 20 2 1
BITMAP
030000
0F8000
078000
07C000
0FE000
1FE000
3FF000
3CF000
7CF800
787800
F07800
F07800
F07FE0
F079F0
F078F0
F078F0
F078F0
F078E0
F87FC0
E07C00
ENDCHAR
STARTCHAR char13
ENCODING 13
SWIDTH 6400 0
DWIDTH 96 0
BBX 21 20 2 1
BITMAP
01C000
03C000
03E000
01F000
03FC00
07FC00
0FBE00
1F1F00
3E0F00
3C0F80
3C0780
780780
7FE3C0
73E3C0
F1E3C0
F1E3E0
F1C1E0
FF01F0
F800F8
6000E0
ENDCHAR
STARTCHAR char14
ENCODING 14
SWIDTH 7466 0
DWIDTH 112 0
BBX 25 20 2 1
BITMAP
01000000
07800000
0F800000
07C00000
07C00000
0FE00000
1FF03F00
3EFFE700
3C7BE780
7879E780
7879E700
7878FE00
F0780000
F0780000
F0780000
F0780000
F0780000
F07C0000
F83C0000
F83E0000
ENDCHAR
STARTCHAR char15
ENCODING 15
SWIDTH 6133 0
DWIDTH 92 0
BBX 20 21 2 1
BITMAP
0F0000
0F8000
078000
0FC000
1FE000
3FE000
7CF000
78F000
F8F000
F0F000
F0F000
F07000
F07800
F87800
007800
007800
007800
1FFFE0
3F39F0
3E00F0
3C0070
ENDCHAR
STARTCHAR char16
ENCODING 16
SWIDTH 6933 0
DWIDTH 104 0
BBX 23 20 2 1
BITMAP
00F000
00F000
007800
007800
007800
007800
007800
007FE0
07F8F0
1E7878
3C787C
78783C
78783C
F0783C
F0783C
F0783C
F0783C
F0783C
F0783C
783C1E
ENDCHAR
STARTCHAR char17
ENCODING 17
SWIDTH 8533 0
DWIDTH 128 0
BBX 29 20 2 1
BITMAP
00F00000
00F00000
00780000
00780000
00780000
00780000
00780000
007FE000
07F8F000
1E787800
3C787C00
78783C00
78783C30
F0783CF0
F0783FF0
F0783CF8
F0783C38
F0783C00
F0783C00
783C1E00
ENDCHAR
STARTCHAR char18
ENCODING 18
SWIDTH 8533 0
DWIDTH 128 0
BBX 29 22 2 -1
BITMAP
00F00000
00F00000
00780000
00780000
00780000
00780000
00780000
007FE000
07F8F000
1E787800
3C787C00
78783C00
78783C00
F0783C00
F0783C00
F0783C00
F0783C00
F0783C00
F0783C70
783C1FF0
00000078
00000078
ENDCHAR
STARTCHAR char19
ENCODING 19
SWIDTH 6933 0
DWIDTH 104 0
BBX 23 20 2 1
BITMAP
00F000
00F000
007800
007800
007800
007800
007800
007FE0
07F8F0
1E7878
3C787C
78783C
78783C
F0783C
F0783C
F0783C
783C3C
00003C
00003C
00001E
ENDCHAR
STARTCHAR char20
ENCODING 20
SWIDTH 8000 0
DWIDTH 120 0
BBX 27 20 2 1
BITMAP
00F00000
00F00000
00780000
00780000
00780000
00780000
00780000
007FE000
07F8F000
1E787800
3C787C00
78783C00
78783C00
F0783C00
F0783C00
F0783FC0
F0783C60
F0783C60
F0783CE0
783C1FC0
ENDCHAR
STARTCHAR char21
ENCODING 21
SWIDTH 6933 0
DWIDTH 104 0
BBX 23 21 2 1
BITMAP
078000
038000
038000
03F800
007800
007800
007800
007800
007800
007FE0
07F8F0
1E7878
3C787C
78783C
78783C
F0783C
F0783C
F0783C
F0783C
F0783C
783C1E
ENDCHAR
STARTCHAR char22
ENCODING 22
SWIDTH 6933 0
DWIDTH 104 0
BBX 23 20 2 1
BITMAP
00F000
00F000
007800
007800
007800
007800
007800
007FE0
07F8F0
1E7878
3C787C
78783C
78783C
F0783C
F0783C
F0783C
F03C1E
F00000
F00000
780000
ENDCHAR
STARTCHAR char19
ENCODING 23
SWIDTH 6933 0
DWIDTH 104 0
BBX 23 20 2 1
BITMAP
00F000
00F000
007800
007800
007800
007800
007800
007FE0
07F8F0
1E7878
3C787C
78783C
78783C
F0783C
F0783C
F0783C
783C3C
00003C
00003C
00001E
ENDCHAR
STARTCHAR char24
ENCODING 24
SWIDTH 8266 0
DWIDTH 124 0
BBX 28 13 2 5
BITMAP
0003FFC0
00FFF8E0
071E7870
1E1E7870
1C3C7870
3C3CF060
787CF3E0
7878F3E0
F8F8F3C0
F8F0FF00
F9F00000
7FE00000
30000000
ENDCHAR
STARTCHAR char25
ENCODING 25
SWIDTH 9600 0
DWIDTH 144 0
BBX 33 12 2 6
BITMAP
000FFF0000
07FFE78000
1E79E38000
3C79E3C780
38F1E3FF80
78F1C3CF80
78F1C78F80
F0F1C78780
F0E1FE0000
F1E0C00000
FFC0000000
7C00000000
ENDCHAR
STARTCHAR char26
ENCODING 26
SWIDTH 8800 0
DWIDTH 132 0
BBX 30 22 2 -1
BITMAP
001FFF80
0FF9E3C0
1E79E3C0
3C79E3C0
78F1E3C0
78F1E7C0
F8F1E780
F1F0FF80
F1E00F80
7FC00F00
30001F00
00001E00
00001E00
00003E00
00003C00
00003C00
00007C00
0000783C
00007878
00007FF8
0000007C
0000003C
ENDCHAR
STARTCHAR char27
ENCODING 27
SWIDTH 7200 0
DWIDTH 108 0
BBX 24 20 2 1
BITMAP
07FFFE
0CE79F
39E78F
79E78F
71E78F
F1E79F
F3C3FE
F3C01E
FF801E
78003C
00003C
00003C
000078
000078
000078
0000F8
0000F0
0000F0
0000F0
000070
ENDCHAR
STARTCHAR char28
ENCODING 28
SWIDTH 8266 0
DWIDTH 124 0
BBX 28 20 2 1
BITMAP
001FFF80
0FF9C7C0
3CF3C3C0
78F3C7C0
78F3C780
F0F3C780
F1E3E780
F1E1FF00
F3E00F00
FE001F00
30001E00
00003E00
00003C00
00003C60
00007FF0
000078F0
0000F8F0
0000F9F0
0000FFE0
00007C00
ENDCHAR
STARTCHAR char29
ENCODING 29
SWIDTH 7466 0
DWIDTH 112 0
BBX 25 20 2 1
BITMAP
0003FC00
03FFFF00
1EFB8F80
38F3CF80
70F3C780
70F3C700
F0F3C700
F0F3DE00
F0F1F800
F8E00000
7FE00000
03E00000
07C00000
0F800000
1F000000
3E000000
3E000000
7C000000
7C000000
7C000000
ENDCHAR
STARTCHAR char30
ENCODING 30
SWIDTH 7200 0
DWIDTH 108 0
BBX 24 20 2 1
BITMAP
0000FE
07FF9F
1CF38F
38F3CF
78F3C7
70F3C7
F0F3C7
F1E3CF
F1E3DC
F9E1F0
7FE180
03E000
03C000
03C000
03C000
03C000
03C000
07C000
07C000
07C000
ENDCHAR
STARTCHAR char31
ENCODING 31
SWIDTH 8000 0
DWIDTH 120 0
BBX 27 18 2 1
BITMAP
07FFFE00
0CE79F00
39E78F00
79E78F00
71E78F00
F1E79F00
F3C3FE00
F3C01E00
FF801E00
78003C00
00003C00
00003C00
00007800
00007FC0
0007FFE0
0007F8E0
00070060
00060000
ENDCHAR
STARTCHAR char32
ENCODING 32
SWIDTH 8000 0
DWIDTH 120 0
BBX 27 16 2 1
BITMAP
000783C0
380F81E0
3C0F81E0
3C0F81E0
3C0F81E0
380F01E0
780F01C0
781F01C0
781F0380
781F8700
F01FFC00
F03E0000
F03E0000
F07C0000
F0F00000
7F000000
ENDCHAR
STARTCHAR char33
ENCODING 33
SWIDTH 9866 0
DWIDTH 148 0
BBX 34 16 2 1
BITMAP
000783C000
380F81E000
3C0F81E000
3C0F81E000
3C0F81E000
380F01E7C0
780F01FF80
781F01CF80
781F0387C0
781F8703C0
F01FFC0000
F03E000000
F03E000000
F07C000000
F0F0000000
7F00000000
ENDCHAR
STARTCHAR char34
ENCODING 34
SWIDTH 7733 0
DWIDTH 116 0
BBX 26 23 2 -1
BITMAP
00000F00
383C0F00
783C0F00
783C0F00
783C1E00
703C1E00
F07E1E00
F07BFC00
F1F03C00
FFC07C00
00007C00
00007800
00007800
0000F800
0000F000
0000F000
0000F000
0001E000
0001E000
0001E780
0001FF80
000007C0
000007C0
ENDCHAR
STARTCHAR char35
ENCODING 35
SWIDTH 7200 0
DWIDTH 108 0
BBX 24 21 2 1
BITMAP
00000F
383C0F
783C0F
783C0F
783C1E
703C1E
F07E1E
F07BFC
F1F03C
FFC07C
00007C
000078
000078
0000F8
0000F0
0000F0
0000F0
0001E0
0001E0
0001E0
0001E0
ENDCHAR
STARTCHAR char36
ENCODING 36
SWIDTH 8000 0
DWIDTH 120 0
BBX 27 21 2 1
BITMAP
00000F00
383C0F00
783C0F00
783C0F00
783C1E00
703C1E00
F07E1E00
F07BFC00
F1F03C00
FFC07C00
00007C00
00007800
00007800
0000F800
0000F000
0000FFC0
0000F1E0
0001E1E0
0001E1C0
0001FF80
0001FC00
ENDCHAR
STARTCHAR char37
ENCODING 37
SWIDTH 9866 0
DWIDTH 148 0
BBX 34 20 2 1
BITMAP
001E000000
000F0F83C0
000F0783C0
001E0783C0
003E0783C0
003C0703C0
00780F0780
00F80F0700
01F01D8E00
01FC78F800
03E7C00000
07C0000000
0F80000000
1F00000000
1F00000000
3E00000000
7C00000000
F800000000
F800000000
FC00000000
ENDCHAR
STARTCHAR char38
ENCODING 38
SWIDTH 7466 0
DWIDTH 112 0
BBX 25 20 2 1
BITMAP
001F0780
780F0780
780F0780
781E0780
783E0780
F03C0F00
F07C0E00
F0FE1C00
F0FBF800
FFF00000
03E00000
03C00000
07C00000
0F800000
0F000000
1E000000
3C000000
3C000000
78000000
78000000
ENDCHAR
STARTCHAR char35
ENCODING 39
SWIDTH 7200 0
DWIDTH 108 0
BBX 24 21 2 1
BITMAP
00000F
383C0F
783C0F
783C0F
783C1E
703C1E
F07E1E
F07BFC
F1F03C
FFC07C
00007C
000078
000078
0000F8
0000F0
0000F0
0000F0
0001E0
0001E0
0001E0
0001E0
ENDCHAR
STARTCHAR char40
ENCODING 40
SWIDTH 4800 0
DWIDTH 72 0
BBX 15 19 2 1
BITMAP
003C
003C
003C
0078
00F8
01F0
01E0
07C0
0F00
1E00
3C00
7C00
7800
F800
F00E
F83E
79FE
3FBE
000E
ENDCHAR
STARTCHAR char41
ENCODING 41
SWIDTH 5600 0
DWIDTH 84 0
BBX 18 19 2 1
BITMAP
03E000
03C000
03C000
0F0000
3E0000
3C0000
780000
F00000
F00000
F00080
7FFF80
03CF80
03C780
0383C0
078000
078000
078000
07C000
078000
ENDCHAR
STARTCHAR char42
ENCODING 42
SWIDTH 4800 0
DWIDTH 72 0
BBX 15 19 2 1
BITMAP
007C
003C
007C
0078
00F8
01F0
03C0
0780
0F00
3E00
7C00
780E
F83E
F01E
F03E
F03C
F8E0
7FC0
3800
ENDCHAR
STARTCHAR char43
ENCODING 43
SWIDTH 6400 0
DWIDTH 96 0
BBX 21 19 2 1
BITMAP
003E00
003C00
003C00
007C00
007800
00F000
01E000
07C000
0F0000
1E0000
3E07F8
7C0CF8
F83878
F87838
F07800
F0F800
F8F800
7FC000
3E0000
ENDCHAR
STARTCHAR char44
ENCODING 44
SWIDTH 5866 0
DWIDTH 88 0
BBX 19 18 2 1
BITMAP
007C00
007C00
007800
00F800
00F000
03E000
07C000
0F0000
1E0000
3E0000
7C0000
7807C0
F07FE0
F0E1E0
F1F1E0
F1F1C0
F7FF80
7CF800
ENDCHAR
STARTCHAR char45
ENCODING 45
SWIDTH 5333 0
DWIDTH 80 0
BBX 17 19 2 0
BITMAP
007F00
07DF00
0E1F00
3C0F80
3C0000
780000
780000
780000
780000
780000
780000
F80000
F80000
F80000
780E00
783E00
78FE00
3F9F00
000E00
ENDCHAR
STARTCHAR char46
ENCODING 46
SWIDTH 5866 0
DWIDTH 88 0
BBX 19 20 2 0
BITMAP
000100
007FE0
03F9E0
1EF0E0
38F9E0
78F9C0
787F80
F03000
F00000
F00000
F00000
F00000
F00000
F00000
F00000
F01E00
F03C00
F9FE00
7F3E00
001C00
ENDCHAR
STARTCHAR char47
ENCODING 47
SWIDTH 6400 0
DWIDTH 96 0
BBX 21 21 2 1
BITMAP
380018
3C0078
3E00F8
3FFFF8
003C00
007C00
007800
00F000
01E000
07C000
0F0000
1E0000
3E07F8
7C0CF8
F83878
F87838
F07800
F0F800
F8F800
7FC000
3E0000
ENDCHAR
STARTCHAR char48
ENCODING 48
SWIDTH 4533 0
DWIDTH 68 0
BBX 14 22 2 1
BITMAP
03C0
03C0
03C0
03C0
03C0
03F0
1E78
383C
703C
703C
703C
F03C
F03C
F03C
F03C
F03C
F03C
F03C
F03C
F03C
F83C
603C
ENDCHAR
STARTCHAR char49
ENCODING 49
SWIDTH 6666 0
DWIDTH 100 0
BBX 22 22 2 1
BITMAP
03C000
03C000
03C000
03C000
03C000
07F000
1C7800
383C00
783C00
703C00
703C7C
F03FF8
F03CF8
F03C7C
F03C3C
F03C00
F03C00
F03C00
F03C00
F03C00
783E00
781800
ENDCHAR
STARTCHAR char50
ENCODING 50
SWIDTH 6666 0
DWIDTH 100 0
BBX 22 23 2 -1
BITMAP
00C000
03C000
03C000
03C000
03C000
07F800
1C7800
383C00
703C00
703C00
703C00
703C00
F03C00
F03C00
F03C00
F03C00
F03C00
F03C00
F03C00
F83C78
783FF8
00007C
00007C
ENDCHAR
STARTCHAR char51
ENCODING 51
SWIDTH 4800 0
DWIDTH 72 0
BBX 15 21 2 1
BITMAP
00C0
07C0
03C0
03C0
07C0
07F0
1C78
383C
703C
703C
F03C
F03C
F03C
F03C
F03C
F83C
003C
003C
003C
003C
003E
ENDCHAR
STARTCHAR char52
ENCODING 52
SWIDTH 5866 0
DWIDTH 88 0
BBX 19 21 2 1
BITMAP
078000
078000
078000
078000
07C000
1CF000
307800
707800
707800
F07800
F07800
F07000
F0F000
F0F000
F0F000
F0FFC0
F0F3E0
F0F1E0
F0F1C0
F0F3C0
F0FF00
ENDCHAR
STARTCHAR char53
ENCODING 53
SWIDTH 4533 0
DWIDTH 68 0
BBX 14 22 2 1
BITMAP
0200
1E00
1F00
0780
0780
0FE0
1C78
3878
703C
703C
F03C
F03C
F03C
F03C
F03C
F03C
F03C
F03C
F03C
F03C
F03C
703C
ENDCHAR
STARTCHAR char54
ENCODING 54
SWIDTH 4800 0
DWIDTH 72 0
BBX 15 22 2 1
BITMAP
01C0
07C0
07C0
07C0
07C0
07F0
1C78
383C
703C
703C
703C
F03C
F03C
F03C
F03C
F03E
F018
F000
F000
F000
F800
6000
ENDCHAR
STARTCHAR char55
ENCODING 55
SWIDTH 5866 0
DWIDTH 88 0
BBX 19 25 2 1
BITMAP
03C000
03C000
03C000
03C000
03C000
07F000
1C7800
383C00
703C00
703C00
F03C00
F03C00
F03C00
F03C00
F03C00
F83C00
003C00
003C00
003C00
003C00
003FC0
07FFE0
0780E0
070060
060000
ENDCHAR
STARTCHAR char56
ENCODING 56
SWIDTH 5333 0
DWIDTH 80 0
BBX 17 24 2 1
BITMAP
000180
E00700
703F00
7FE700
F3C380
E3C000
03C000
03C000
067800
1C3800
1C3C00
3C3C00
3C3C00
783C00
783800
787800
787800
787800
787800
787800
787800
787800
3C3C00
383C00
ENDCHAR
STARTCHAR char57
ENCODING 57
SWIDTH 6400 0
DWIDTH 96 0
BBX 21 24 2 1
BITMAP
0003C0
C00780
F03F80
FFE7C0
F1E180
E1C000
01C000
03E000
0E3800
1C3800
3C3800
3C3800
787878
787FF8
7879F8
787878
787800
787800
787800
787800
787800
787800
787800
203800
ENDCHAR
STARTCHAR char58
ENCODING 58
SWIDTH 6666 0
DWIDTH 100 0
BBX 22 25 2 0
BITMAP
0003C0
E007C0
F83FC0
FFE7C0
F1E000
E1E000
01E000
037000
063800
1C3800
3C3800
383800
383800
783800
787800
787800
787800
787800
787800
787800
787838
787878
7C7FF8
0030F8
00007C
ENDCHAR
STARTCHAR char59
ENCODING 59
SWIDTH 5333 0
DWIDTH 80 0
BBX 17 23 2 1
BITMAP
000380
F00780
783F80
7FE380
79E000
E1E000
01E000
01F000
071C00
0E1C00
1E1C00
1C1C00
3C1C00
3C3C00
3C3C00
3C3C00
3C3C00
1C3C00
003C00
003C00
003C00
003C00
003E00
ENDCHAR
STARTCHAR char60
ENCODING 60
SWIDTH 5933 0
DWIDTH 89 0
BBX 18 24 2 1
BITMAP
000180
E00700
703F00
7FE700
F3C380
E3C000
03C000
03C000
067800
1C3800
1C3C00
3C3C00
3C3C00
783C00
783800
787800
787800
787800
787800
787F80
7878C0
7878C0
3C3DC0
383F80
ENDCHAR
STARTCHAR char61
ENCODING 61
SWIDTH 5866 0
DWIDTH 88 0
BBX 19 24 2 1
BITMAP
0000E0
0003C0
F807C0
7FFFE0
7CF1C0
F87800
007C00
003F00
0033C0
00E3C0
01E3C0
01C3C0
03C3C0
03C3C0
03C3C0
03C3C0
03C3C0
03C3C0
03C3C0
03C3C0
03C3C0
03C3C0
03C3C0
0383C0
ENDCHAR
STARTCHAR char62
ENCODING 62
SWIDTH 5600 0
DWIDTH 84 0
BBX 18 23 2 1
BITMAP
000380
200780
F87F80
7FE780
79E1C0
71E000
01E000
01F000
073C00
0E1C00
1C1C00
1C3C00
1C3C00
3C3C00
3C3C00
3C3C00
3C3C00
3C3E00
3C0000
3C0000
3C0000
3C0000
3C0000
ENDCHAR
STARTCHAR char63
ENCODING 63
SWIDTH 5866 0
DWIDTH 88 0
BBX 19 26 2 1
BITMAP
000380
F00780
783F80
7FE380
79E000
E1E000
01E000
01F000
071C00
0E1C00
1E1C00
1C1C00
3C1C00
3C3C00
3C3C00
3C3C00
3C3C00
1C3C00
003C00
003C00
003C00
003FC0
07FFE0
0780E0
070060
060000
ENDCHAR
STARTCHAR char64
ENCODING 64
SWIDTH 5866 0
DWIDTH 88 0
BBX 19 21 2 1
BITMAP
00F800
007800
007800
007800
00F800
00F100
07FFE0
1CF1E0
78F1E0
F0F1E0
F0F3C0
F1E780
7FFC00
31E000
01E000
01E000
01E000
01E000
03E000
03E000
03E000
ENDCHAR
STARTCHAR char65
ENCODING 65
SWIDTH 5866 0
DWIDTH 88 0
BBX 19 21 2 1
BITMAP
00F000
007000
007000
00F000
00F000
00FFC0
0FF3E0
38F1E0
70F1E0
F0E1C0
F1E780
F9FF00
7FE000
01E000
01E3C0
01FFC0
01E7C0
01C3C0
03C1C0
03E000
01C000
ENDCHAR
STARTCHAR char66
ENCODING 66
SWIDTH 5866 0
DWIDTH 88 0
BBX 19 23 2 -1
BITMAP
007000
00F800
007000
007000
00F000
00F000
00FFC0
1FF1E0
78F1E0
70F1E0
F1E1C0
F1E380
F9FE00
3FE000
01E000
01E000
01E000
03E000
03C040
03C3C0
03FFC0
0007C0
0003E0
ENDCHAR
STARTCHAR char67
ENCODING 67
SWIDTH 6933 0
DWIDTH 104 0
BBX 23 22 2 0
BITMAP
001F00
000F00
000F00
000F00
000F00
000FFC
01FF3E
078F1E
078F1E
078F3E
07CF7C
03FFC0
000F00
000F00
001E00
003E00
00F800
0FC000
7C0000
780000
780000
F00000
ENDCHAR
STARTCHAR char68
ENCODING 68
SWIDTH 5866 0
DWIDTH 88 0
BBX 19 21 2 1
BITMAP
00F000
00F800
00F000
00F000
00F000
1FFFC0
3CF3E0
38F1E0
70F1E0
F0E1C0
F1E380
F9FE00
7FE000
01E000
01E000
01FF80
03CF80
03C780
03C780
03EF00
01FC00
ENDCHAR
STARTCHAR char69
ENCODING 69
SWIDTH 5866 0
DWIDTH 88 0
BBX 19 24 2 0
BITMAP
1F0000
1F0000
1F8000
38F000
00F000
00F000
00F000
00F000
00FFC0
0FF3E0
38F1E0
70F1E0
F0E1C0
F1E3C0
F1FF00
7FE000
01E000
01E000
01E000
01E000
03C000
03E000
03E000
018000
ENDCHAR
STARTCHAR char70
ENCODING 70
SWIDTH 5866 0
DWIDTH 88 0
BBX 19 21 2 1
BITMAP
007C00
01CF00
038F00
038F00
03CE00
03DE00
03FC00
01F000
01FF80
0EF3C0
38F1E0
71F1E0
F1E1C0
F1E3C0
F1FF00
7FE000
01E000
01E000
03E000
03E000
03E000
ENDCHAR
STARTCHAR char64
ENCODING 72
SWIDTH 5866 0
DWIDTH 88 0
BBX 19 21 2 1
BITMAP
00F800
007800
007800
007800
00F800
00F100
07FFE0
1CF1E0
78F1E0
F0F1E0
F0F3C0
F1E780
7FFC00
31E000
01E000
01E000
01E000
01E000
03E000
03E000
03E000
ENDCHAR
STARTCHAR char64
ENCODING 74
SWIDTH 5866 0
DWIDTH 88 0
BBX 19 21 2 1
BITMAP
00F800
007800
007800
007800
00F800
00F100
07FFE0
1CF1E0
78F1E0
F0F1E0
F0F3C0
F1E780
7FFC00
31E000
01E000
01E000
01E000
01E000
03E000
03E000
03E000
ENDCHAR
STARTCHAR char75
ENCODING 75
SWIDTH 5600 0
DWIDTH 84 0
BBX 18 24 2 -1
BITMAP
006000
01F000
00F000
00E000
07FF00
39E780
71E780
F1E3C0
F1E780
F1C780
F1C780
F3CF00
7FFC00
03C000
03C000
03C000
07E000
783C00
783C00
703C00
E03C00
003C00
003E00
001000
ENDCHAR
STARTCHAR char64
ENCODING 76
SWIDTH 5866 0
DWIDTH 88 0
BBX 19 21 2 1
BITMAP
00F800
007800
007800
007800
00F800
00F100
07FFE0
1CF1E0
78F1E0
F0F1E0
F0F3C0
F1E780
7FFC00
31E000
01E000
01E000
01E000
01E000
03E000
03E000
03E000
ENDCHAR
STARTCHAR char64
ENCODING 77
SWIDTH 5866 0
DWIDTH 88 0
BBX 19 21 2 1
BITMAP
00F800
007800
007800
007800
00F800
00F100
07FFE0
1CF1E0
78F1E0
F0F1E0
F0F3C0
F1E780
7FFC00
31E000
01E000
01E000
01E000
01E000
03E000
03E000
03E000
ENDCHAR
STARTCHAR char80
ENCODING 80
SWIDTH 6133 0
DWIDTH 92 0
BBX 20 24 2 1
BITMAP
700030
7800F0
7C01F0
7FFFF0
007800
00F800
007800
00F800
00F100
07FFE0
1CF1E0
78F1E0
F0F1E0
F0F3C0
F1E780
7FFC00
31E000
01E000
01E000
01E000
01E000
03E000
03E000
03E000
ENDCHAR
STARTCHAR char81
ENCODING 81
SWIDTH 5866 0
DWIDTH 88 0
BBX 19 24 2 1
BITMAP
E00060
F001E0
F803E0
FFFFE0
00F000
00F000
00F000
00F000
00FFC0
0FF3E0
38F1E0
70F1E0
F0E1C0
F1E780
F9FF00
7FE000
01E000
01E3C0
01FFC0
01E7C0
01C3C0
03C1C0
03E000
01E000
ENDCHAR
STARTCHAR char82
ENCODING 82
SWIDTH 6133 0
DWIDTH 92 0
BBX 20 26 2 -1
BITMAP
700030
7800F0
7C01F0
7FFFF0
00F800
00F800
007800
00F000
00F000
00FFC0
1FF1E0
78F1E0
70F1E0
F1E1C0
F1E380
F9FE00
3FE000
01E000
01E000
01E000
03E000
03C040
03C3C0
03FFC0
0007C0
0003E0
ENDCHAR
STARTCHAR char83
ENCODING 83
SWIDTH 6933 0
DWIDTH 104 0
BBX 23 25 2 0
BITMAP
0E0006
0F001E
0F803E
0FFFFE
001F00
001F00
000F00
000F00
000FFC
01FF3E
078F1E
078F1E
078F3E
07CF7C
03FFC0
000F00
000F00
001E00
003E00
00F800
0FC000
7C0000
780000
780000
F00000
ENDCHAR
STARTCHAR char84
ENCODING 84
SWIDTH 5866 0
DWIDTH 88 0
BBX 19 24 2 1
BITMAP
E00060
F001E0
F803E0
FFFFE0
01F800
01F000
00F000
00F000
1FFFC0
3CF3E0
38F1E0
70F1E0
F0E1C0
F1E380
F9FE00
7FE000
01E000
01E000
01FF80
03CF80
03C780
03C780
03EF00
01FC00
ENDCHAR
STARTCHAR char85
ENCODING 85
SWIDTH 6933 0
DWIDTH 104 0
BBX 23 28 2 1
BITMAP
E00060
F001E0
F803E0
FFFFE0
01F000
00E000
00F800
018F00
000F00
000F00
000F00
000F00
000FFC
00FF3E
038F1E
070F1E
0F0E1C
0F1E3C
0F1FF0
07FE00
001E00
001E00
001E00
001E00
003C00
003E00
003E00
001800
ENDCHAR
STARTCHAR char86
ENCODING 86
SWIDTH 6133 0
DWIDTH 92 0
BBX 20 24 2 1
BITMAP
700030
7800F0
7C01F0
7FFFF0
01FF00
03FF00
038F00
03CE00
03DE00
03FC00
01F000
01FF80
0EF3C0
38F1E0
71F1E0
F1E1C0
F1E3C0
F1FF00
7FE000
01E000
01E000
03E000
03E000
03E000
ENDCHAR
STARTCHAR char80
ENCODING 88
SWIDTH 6133 0
DWIDTH 92 0
BBX 20 24 2 1
BITMAP
700030
7800F0
7C01F0
7FFFF0
007800
00F800
007800
00F800
00F100
07FFE0
1CF1E0
78F1E0
F0F1E0
F0F3C0
F1E780
7FFC00
31E000
01E000
01E000
01E000
01E000
03E000
03E000
03E000
ENDCHAR
STARTCHAR char80
ENCODING 90
SWIDTH 6133 0
DWIDTH 92 0
BBX 20 24 2 1
BITMAP
700030
7800F0
7C01F0
7FFFF0
007800
00F800
007800
00F800
00F100
07FFE0
1CF1E0
78F1E0
F0F1E0
F0F3C0
F1E780
7FFC00
31E000
01E000
01E000
01E000
01E000
03E000
03E000
03E000
ENDCHAR
STARTCHAR char91
ENCODING 91
SWIDTH 5866 0
DWIDTH 88 0
BBX 19 27 2 1
BITMAP
E00060
F001E0
F803E0
FFFFE0
00F000
00E000
00E000
07FF00
39E780
71E780
F1E3C0
F1E780
F1C780
F1C780
F3CF00
7FFC00
03C000
03C000
03C000
07E000
783C00
783C00
703C00
E03C00
003C00
003E00
001000
ENDCHAR
STARTCHAR char80
ENCODING 92
SWIDTH 6133 0
DWIDTH 92 0
BBX 20 24 2 1
BITMAP
700030
7800F0
7C01F0
7FFFF0
007800
00F800
007800
00F800
00F100
07FFE0
1CF1E0
78F1E0
F0F1E0
F0F3C0
F1E780
7FFC00
31E000
01E000
01E000
01E000
01E000
03E000
03E000
03E000
ENDCHAR
STARTCHAR char80
ENCODING 93
SWIDTH 6133 0
DWIDTH 92 0
BBX 20 24 2 1
BITMAP
700030
7800F0
7C01F0
7FFFF0
007800
00F800
007800
00F800
00F100
07FFE0
1CF1E0
78F1E0
F0F1E0
F0F3C0
F1E780
7FFC00
31E000
01E000
01E000
01E000
01E000
03E000
03E000
03E000
ENDCHAR
STARTCHAR char96
ENCODING 96
SWIDTH 4533 0
DWIDTH 68 0
BBX 14 20 2 1
BITMAP
0080
0FF0
3CF8
7878
7078
7078
F078
F078
F078
F078
F078
F078
F078
F078
F078
F078
F078
F078
F078
F87C
ENDCHAR
STARTCHAR char97
ENCODING 97
SWIDTH 6666 0
DWIDTH 100 0
BBX 22 20 2 1
BITMAP
07E000
1CF000
387800
707800
707800
F07800
F07878
F07FF8
F078F8
F078F8
F0787C
F07800
F07800
F07800
F07800
F07800
F07800
F07800
F07800
787C00
ENDCHAR
STARTCHAR char98
ENCODING 98
SWIDTH 6666 0
DWIDTH 100 0
BBX 22 22 2 -1
BITMAP
07E000
1CF000
387800
707800
707800
F07800
F07800
F07800
F07800
F07800
F07800
F07800
F07800
F07800
F07800
F07800
F07800
F07878
F078F8
607FF8
0000F8
00007C
ENDCHAR
STARTCHAR char99
ENCODING 99
SWIDTH 4533 0
DWIDTH 68 0
BBX 14 20 2 2
BITMAP
00C0
0FF0
3CF0
7878
7078
F078
F078
F078
F078
F078
F078
F078
F078
F078
F878
0078
0078
0078
0078
007C
ENDCHAR
STARTCHAR char100
ENCODING 100
SWIDTH 6133 0
DWIDTH 92 0
BBX 20 20 2 1
BITMAP
0FE000
3CF000
787800
F07800
F07800
F07800
F07800
F07800
E07800
E07800
E07800
E07800
E07800
E07800
F07FC0
F079F0
F078F0
F078F0
F07FE0
603C00
ENDCHAR
STARTCHAR char101
ENCODING 101
SWIDTH 6400 0
DWIDTH 96 0
BBX 21 20 2 1
BITMAP
000FC0
0039E0
0070F0
00E0F0
00E0F0
01E0F0
01E0F0
1FE0F0
F9E0F0
F9E0F0
F1E0F0
F1E0F0
E1E0F0
01E0F0
01E0F0
01E0F0
01E0F0
01E0F0
01E0F0
01F0F8
ENDCHAR
STARTCHAR char102
ENCODING 102
SWIDTH 4266 0
DWIDTH 64 0
BBX 13 20 2 1
BITMAP
07E0
3CF8
7878
7078
F078
F078
F078
F078
F078
F078
F078
F078
F078
F078
F078
F000
F000
F000
F000
7000
ENDCHAR
STARTCHAR char103
ENCODING 103
SWIDTH 6133 0
DWIDTH 92 0
BBX 20 23 2 -1
BITMAP
07E000
0CF000
387800
787800
787800
707800
F07800
F07800
F07800
F07800
F07800
F07800
F07800
F87800
787800
007800
007800
007800
007FF0
3FC1F0
3C00F0
3C0030
380000
ENDCHAR
STARTCHAR char104
ENCODING 104
SWIDTH 5333 0
DWIDTH 80 0
BBX 17 22 2 1
BITMAP
000180
000780
F8FF80
7F8780
780000
600000
000000
03F000
0E3800
1E3C00
1C3C00
1C3C00
3C3C00
3C3C00
3C3C00
3C3C00
3C3C00
3C3C00
3C3C00
3C3C00
3C3C00
3C3C00
ENDCHAR
STARTCHAR char105
ENCODING 105
SWIDTH 6666 0
DWIDTH 100 0
BBX 22 22 2 1
BITMAP
000180
000780
F8FF80
7F8780
780000
600000
000000
03F000
0E3800
1E3C00
1C3C00
1C3C00
3C3C78
3C3FF8
3C3CF8
3C3CF8
3C3C7C
3C3C00
3C3C00
3C3C00
3C3C00
3C3C00
ENDCHAR
STARTCHAR char106
ENCODING 106
SWIDTH 6666 0
DWIDTH 100 0
BBX 22 24 2 -1
BITMAP
000180
000780
F8FF80
7F8780
780000
600000
000000
03F000
0E3800
1E3C00
1C3C00
1C3C00
3C3C00
3C3C00
3C3C00
3C3C00
3C3C00
3C3C00
3C3C00
3C3C38
3C3C78
3C3FF8
000078
00003C
ENDCHAR
STARTCHAR char107
ENCODING 107
SWIDTH 5333 0
DWIDTH 80 0
BBX 17 22 2 1
BITMAP
000180
000780
F8FF80
7F8780
780000
600000
000000
03F000
0E3800
1E3C00
1C3C00
1C3C00
3C3C00
3C3C00
3C3C00
3C3C00
3C3C00
3C3C00
3C3C00
003C00
003C00
003C00
ENDCHAR
STARTCHAR char108
ENCODING 108
SWIDTH 6133 0
DWIDTH 92 0
BBX 20 22 2 1
BITMAP
000180
000780
F8FF80
7F8780
780000
600000
000000
03F000
0E3800
1E3C00
1C3C00
1C3C00
3C3C00
3C3C00
3C3C00
3C3C00
3C3C00
3C3FE0
3C3CF0
3C3CF0
3C3CF0
3C3FE0
ENDCHAR
STARTCHAR char109
ENCODING 109
SWIDTH 6666 0
DWIDTH 100 0
BBX 22 22 2 1
BITMAP
000038
020078
078FF8
07F83C
078000
040000
000000
003F80
00F1C0
00E1C0
01E1C0
0FE1C0
F1C1C0
F3C3C0
E3C3C0
C3C3C0
03C3C0
03C3C0
03C3C0
03C3C0
03C3C0
01E180
ENDCHAR
STARTCHAR char110
ENCODING 110
SWIDTH 5333 0
DWIDTH 80 0
BBX 17 22 2 1
BITMAP
000780
F0FF80
7F8780
780100
700000
000000
01F000
063800
1E3C00
1C3C00
3C3C00
3C3C00
3C3C00
3C3C00
3C3C00
3C3C00
383E00
380000
380000
3C0000
3C0000
380000
ENDCHAR
STARTCHAR char107
ENCODING 111
SWIDTH 6733 0
DWIDTH 101 0
BBX 21 27 2 -1
BITMAP
000180
000780
F8FF80
7F8780
780000
600000
000000
03F000
0E3800
1E3C00
1C3C00
1C3C00
3C3C00
3C3C00
3C3C00
3C3C00
3C3C00
3E3C00
1E3C00
003C00
003C00
003C00
003FF8
1FE0F8
1E0078
1E0018
1C0000
ENDCHAR
STARTCHAR char112
ENCODING 112
SWIDTH 6400 0
DWIDTH 96 0
BBX 21 20 2 1
BITMAP
003800
007800
007800
007800
007800
007800
007838
0FFFF0
7878F0
78F8F0
70F078
E0F000
00F000
00F000
00F000
00F000
00E000
01E000
01E000
01F000
ENDCHAR
STARTCHAR char113
ENCODING 113
SWIDTH 6400 0
DWIDTH 96 0
BBX 21 20 2 1
BITMAP
007C00
003C00
003C00
003C00
003C00
003800
0FFFF8
7C7878
7C7878
787878
787800
E07800
007070
0071F0
00FFF0
00F1F0
00F0F8
00F000
00F000
00F800
ENDCHAR
STARTCHAR char114
ENCODING 114
SWIDTH 6400 0
DWIDTH 96 0
BBX 21 22 2 0
BITMAP
003000
007800
007800
007800
007800
007800
007030
0FFFF0
F8F0F0
F8F0F0
F0F078
E0F000
00F000
01E000
01E000
01E000
01E000
01E0E0
01E1C0
00FFC0
0003E0
0001E0
ENDCHAR
STARTCHAR char115
ENCODING 115
SWIDTH 7466 0
DWIDTH 112 0
BBX 25 23 2 0
BITMAP
001F0000
000F0000
000F0000
000F0000
000F0000
000F0000
000FFF80
0FFF0F00
0F8F0F00
0F0F0780
0F0F0000
1C0F0000
000F0000
000E0000
001E0000
003C0000
00F80000
07C00000
7C000000
7C000000
7C000000
78000000
E0000000
ENDCHAR
STARTCHAR char116
ENCODING 116
SWIDTH 6133 0
DWIDTH 92 0
BBX 20 21 2 1
BITMAP
007000
00F800
007800
007800
00F800
00F000
00F010
1FFFF0
F0F1F0
F0F0F0
F0F0F0
E0E000
01E000
01E000
01FF80
01E780
01E3C0
01E380
01E780
01FF00
00E000
ENDCHAR
STARTCHAR char117
ENCODING 117
SWIDTH 6666 0
DWIDTH 100 0
BBX 22 23 2 1
BITMAP
0F8000
07C000
078000
0F7C00
003C00
003C00
003C00
003C00
003C00
003FF8
7FF878
7C7878
7C787C
787810
F07800
007800
007800
007000
00F000
00F000
00F000
00F000
00F800
ENDCHAR
STARTCHAR char118
ENCODING 118
SWIDTH 6133 0
DWIDTH 92 0
BBX 20 22 2 1
BITMAP
003C00
00EF00
01C700
03C700
03C700
03EE00
01EE00
01F800
00F000
0FF070
78FFF0
78F1F0
F0F0F0
E0F070
01F000
01E000
01E000
01E000
01E000
01E000
01E000
01C000
ENDCHAR
STARTCHAR char119
ENCODING 119
SWIDTH 6400 0
DWIDTH 96 0
BBX 21 23 2 -1
BITMAP
003000
007800
007800
007800
007800
007FF8
FFF0F8
F8F0F8
F0F038
F0F000
E0F000
00F000
00F000
00F000
01E000
01E000
01E000
01E000
01FFE0
FF03E0
F801E0
F00000
E00000
ENDCHAR
STARTCHAR char120
ENCODING 120
SWIDTH 6133 0
DWIDTH 92 0
BBX 20 23 2 1
BITMAP
000070
0001E0
7C01E0
3E1FF0
3FF9F0
3C7000
70F000
00F000
00F000
00FFF0
7FF1E0
78F1F0
78F0F0
70F0F0
F1E000
01E000
01E000
01E000
01E000
01E000
01E000
01E000
01E000
ENDCHAR
STARTCHAR char121
ENCODING 121
SWIDTH 6133 0
DWIDTH 92 0
BBX 20 23 2 1
BITMAP
0000E0
0003E0
7C3FE0
3FF9F0
3CF0C0
78F000
00F000
00F000
00F000
0FFFE0
F8E1E0
78E1E0
70E0F0
F1E000
C1E000
01E000
01E3C0
01FFC0
01E7C0
03E3E0
03E000
03E000
01E000
ENDCHAR
STARTCHAR char122
ENCODING 122
SWIDTH 6133 0
DWIDTH 92 0
BBX 20 25 2 -1
BITMAP
0001E0
7803E0
3C3FE0
3FF1F0
3CF000
78F000
00F000
00F000
00F1F0
1FFFE0
F8F1E0
79F1E0
79E0F0
F1E000
C1E000
01E000
01E000
01E000
01E000
01E0E0
03E3C0
03FFC0
0103C0
0003E0
0001C0
ENDCHAR
STARTCHAR char123
ENCODING 123
SWIDTH 6400 0
DWIDTH 96 0
BBX 21 25 2 -1
BITMAP
000038
1C00F0
0E0FF0
0FFCF8
1F3C78
1E3C00
003C00
003C00
003800
007FF8
7FF8F0
3C78F0
3C7878
787838
707800
007800
00F000
00F000
01E000
038000
1E0000
F80000
780000
F00000
F00000
ENDCHAR
STARTCHAR char124
ENCODING 124
SWIDTH 6133 0
DWIDTH 92 0
BBX 20 23 2 1
BITMAP
0000F0
0001E0
7803E0
3C3FE0
3FF1F0
3CF000
78F000
00F000
00F000
00FFF0
7FF1E0
79E1E0
79E1E0
F1E070
C1E000
01E000
01E000
01E300
03FF80
03C780
03C780
03E700
01FE00
ENDCHAR
STARTCHAR char125
ENCODING 125
SWIDTH 6666 0
DWIDTH 100 0
BBX 22 25 2 1
BITMAP
E003C0
700780
703FC0
FFE7C0
E3E000
03C000
03C000
027C00
003C00
003C00
003C00
003FFC
3FFC78
1E3878
1C783C
3C7800
307800
007800
007800
007800
007000
00F000
00F000
00F000
00F800
ENDCHAR
STARTCHAR char126
ENCODING 126
SWIDTH 6133 0
DWIDTH 92 0
BBX 20 26 2 1
BITMAP
000020
0000F0
3C00F0
1E00E0
3E07C0
3FFE00
01DC00
038E00
078E00
079E00
03DC00
03F000
01E000
3FE1C0
F1FF80
F1E780
71E3C0
E1E3C0
C3E000
03C000
03C000
03C000
03C000
03C000
03C000
03C000
ENDCHAR
STARTCHAR char127
ENCODING 127
SWIDTH 6933 0
DWIDTH 104 0
BBX 23 22 2 1
BITMAP
0FFFFC
0F1E3C
1F1E3C
1E3E1E
1C3E00
003C00
01FFF8
1E3C78
1E3C78
3C7C08
007C00
007800
007800
007800
007800
007800
007800
07FFF0
7C01F0
7800F0
780030
E00000
ENDCHAR
STARTCHAR char128
ENCODING 128
SWIDTH 5333 0
DWIDTH 80 0
BBX 17 21 2 1
BITMAP
01F000
01F000
01F000
01F000
7FE000
79E000
79E300
71FF80
E00F80
000F00
001F00
001F00
001E00
003E00
003E00
003C00
003C00
007C00
007C00
007C00
007800
ENDCHAR
STARTCHAR char128
ENCODING 129
SWIDTH 5333 0
DWIDTH 80 0
BBX 17 21 2 1
BITMAP
01F000
01F000
01F000
01F000
7FE000
79E000
79E300
71FF80
E00F80
000F00
001F00
001F00
001E00
003E00
003E00
003C00
003C00
007C00
007C00
007C00
007800
ENDCHAR
STARTCHAR char128
ENCODING 130
SWIDTH 5333 0
DWIDTH 80 0
BBX 17 21 2 1
BITMAP
01F000
01F000
01F000
01F000
7FE000
79E000
79E300
71FF80
E00F80
000F00
001F00
001F00
001E00
003E00
003E00
003C00
003C00
007C00
007C00
007C00
007800
ENDCHAR
STARTCHAR char131
ENCODING 131
SWIDTH 4800 0
DWIDTH 72 0
BBX 15 21 2 1
BITMAP
01E0
01E0
01E0
01E0
03E0
1DE0
F1FC
F01E
E01E
C01E
001E
001E
001C
003C
00F8
03C0
3F00
7800
7000
7000
E000
ENDCHAR
STARTCHAR char128
ENCODING 132
SWIDTH 5333 0
DWIDTH 80 0
BBX 17 21 2 1
BITMAP
01F000
01F000
01F000
01F000
7FE000
79E000
79E300
71FF80
E00F80
000F00
001F00
001F00
001E00
003E00
003E00
003C00
003C00
007C00
007C00
007C00
007800
ENDCHAR
STARTCHAR char133
ENCODING 133
SWIDTH 5333 0
DWIDTH 80 0
BBX 17 21 2 1
BITMAP
01F000
01F000
01F000
07F000
1DE000
39E000
71E300
F1FF80
F00F80
000F00
001F00
001F00
001E00
003E00
003E00
003C00
003C00
007C00
007C00
007C00
007C00
ENDCHAR
STARTCHAR char150
ENCODING 134
SWIDTH 5866 0
DWIDTH 88 0
BBX 19 21 2 1
BITMAP
001F80
03F9E0
0E78E0
3C71E0
3879E0
7879C0
787F80
780000
F80000
780000
780000
3FF000
00F000
00F000
00F000
00F000
00F000
01F000
01F000
01F000
01F000
ENDCHAR
STARTCHAR char128
ENCODING 136
SWIDTH 5333 0
DWIDTH 80 0
BBX 17 21 2 1
BITMAP
01F000
01F000
01F000
01F000
7FE000
79E000
79E300
71FF80
E00F80
000F00
001F00
001F00
001E00
003E00
003E00
003C00
003C00
007C00
007C00
007C00
007800
ENDCHAR
STARTCHAR char128
ENCODING 138
SWIDTH 5333 0
DWIDTH 80 0
BBX 17 21 2 1
BITMAP
01F000
01F000
01F000
01F000
7FE000
79E000
79E300
71FF80
E00F80
000F00
001F00
001F00
001E00
003E00
003E00
003C00
003C00
007C00
007C00
007C00
007800
ENDCHAR
STARTCHAR char139
ENCODING 139
SWIDTH 5600 0
DWIDTH 84 0
BBX 18 22 2 -1
BITMAP
01F000
01F000
01F000
01E000
7FE000
79E000
799E00
701E00
C03E00
003E00
003C00
003C00
007C00
007C00
07FC00
3C0380
7803C0
7803C0
7003C0
6003C0
0003C0
0003C0
ENDCHAR
STARTCHAR char128
ENCODING 140
SWIDTH 5333 0
DWIDTH 80 0
BBX 17 21 2 1
BITMAP
01F000
01F000
01F000
01F000
7FE000
79E000
79E300
71FF80
E00F80
000F00
001F00
001F00
001E00
003E00
003E00
003C00
003C00
007C00
007C00
007C00
007800
ENDCHAR
STARTCHAR char128
ENCODING 141
SWIDTH 5333 0
DWIDTH 80 0
BBX 17 21 2 1
BITMAP
01F000
01F000
01F000
01F000
7FE000
79E000
79E300
71FF80
E00F80
000F00
001F00
001F00
001E00
003E00
003E00
003C00
003C00
007C00
007C00
007C00
007800
ENDCHAR
STARTCHAR char144
ENCODING 144
SWIDTH 3733 0
DWIDTH 56 0
BBX 11 20 2 1
BITMAP
7C00
7800
7800
7800
7800
F000
F800
0FC0
03E0
03C0
03C0
07C0
0780
0F80
0F00
1F00
1F00
1E00
1E00
1E00
ENDCHAR
STARTCHAR char145
ENCODING 145
SWIDTH 4800 0
DWIDTH 72 0
BBX 15 21 2 1
BITMAP
3000
F800
7800
F800
F000
F000
F180
FFC0
07C0
0780
0F86
0FFE
0F1C
1F1E
1F00
1E00
1E00
3E00
3E00
3E00
3000
ENDCHAR
STARTCHAR char146
ENCODING 146
SWIDTH 4266 0
DWIDTH 64 0
BBX 13 23 2 -2
BITMAP
7C00
7C00
7800
7800
7800
7800
FFE0
03E0
03E0
07C0
07C0
0F80
0F80
1F00
1E00
3E00
3E00
7C00
7C70
7FF0
00F0
00F8
0078
ENDCHAR
STARTCHAR char147
ENCODING 147
SWIDTH 5066 0
DWIDTH 76 0
BBX 16 20 2 1
BITMAP
07FF
1E1F
3C1F
781F
F807
F000
F000
F000
F000
F800
FFF0
00F0
00F0
01F0
01F0
01E0
01E0
01E0
01E0
01E0
ENDCHAR
STARTCHAR char148
ENCODING 148
SWIDTH 4266 0
DWIDTH 64 0
BBX 13 20 2 1
BITMAP
7C00
7800
7800
7800
7800
78C0
7FC0
07C0
07C0
0F80
0F80
1F00
1E00
3E30
7FF8
78F8
F878
F8F0
7FE0
7C00
ENDCHAR
STARTCHAR char149
ENCODING 149
SWIDTH 5066 0
DWIDTH 76 0
BBX 16 19 2 1
BITMAP
3FF8
7878
7878
78F0
E0F0
00F0
01E0
001F
001E
003E
003C
007C
0078
00F8
00F0
01F0
01E0
03E0
03E0
ENDCHAR
STARTCHAR char150
ENCODING 150
SWIDTH 5866 0
DWIDTH 88 0
BBX 19 21 2 1
BITMAP
001F80
03F9E0
0E78E0
3C71E0
3879E0
7879C0
787F80
780000
F80000
780000
780000
3FF000
00F000
00F000
00F000
00F000
00F000
01F000
01F000
01F000
01F000
ENDCHAR
STARTCHAR char151
ENCODING 151
SWIDTH 5066 0
DWIDTH 76 0
BBX 16 23 2 0
BITMAP
0010
01FF
0F1F
1E1F
3C0F
7C03
7800
7800
7800
7800
7C00
3FF0
01F0
01E0
01E0
01E0
01E0
01E0
03E0
7F1F
781F
700F
E003
ENDCHAR
STARTCHAR char152
ENCODING 152
SWIDTH 6400 0
DWIDTH 96 0
BBX 21 21 2 1
BITMAP
7000F0
783FF0
7FF1F0
78F0F8
F0F000
00F000
01F000
01E000
01FF00
000F00
000F00
001F00
001E00
003E00
003E00
003C00
007C00
007800
007800
00F800
00F800
ENDCHAR
STARTCHAR char153
ENCODING 153
SWIDTH 7200 0
DWIDTH 108 0
BBX 24 22 2 0
BITMAP
000038
7800F0
7C3FF0
7FF1F8
78F0F8
F0F000
00F000
00F000
00F180
00CF80
000F80
000F00
000FFE
001F1E
001E1F
003E07
003C00
003C00
007800
007800
007800
007800
ENDCHAR
STARTCHAR char154
ENCODING 154
SWIDTH 6133 0
DWIDTH 92 0
BBX 20 24 2 -2
BITMAP
0000F0
F801F0
7FFFF0
78F1F0
F8F000
01F000
01E000
01E000
01FF80
000F80
000F80
000F00
001F00
001F00
003E00
003E00
007C00
007800
00F830
00F0E0
00FFE0
0001F0
0000F0
0000F0
ENDCHAR
STARTCHAR char155
ENCODING 155
SWIDTH 5866 0
DWIDTH 88 0
BBX 19 23 2 1
BITMAP
F001E0
F803C0
7FFFE0
F9E3E0
F1E000
01E000
0F1C00
1C0F80
780780
780780
F803C0
F80000
F80000
7FE000
00F000
00F000
00F000
01E000
01E000
01E000
03E000
03E000
03E000
ENDCHAR
STARTCHAR char148
ENCODING 156
SWIDTH 4266 0
DWIDTH 64 0
BBX 13 20 2 1
BITMAP
7C00
7800
7800
7800
7800
78C0
7FC0
07C0
07C0
0F80
0F80
1F00
1E00
3E30
7FF8
78F8
F878
F8F0
7FE0
7C00
ENDCHAR
STARTCHAR char156
ENCODING 157
SWIDTH 5600 0
DWIDTH 84 0
BBX 18 25 2 1
BITMAP
0003C0
F007C0
F807C0
FFFC00
E1E000
01E000
01E000
01FC00
0F7C00
7C7800
787800
787800
E07800
00FFC0
0007C0
000780
000F80
000F80
000F00
000F00
001F00
001E00
001E00
003E00
003E00
ENDCHAR
STARTCHAR char157
ENCODING 158
SWIDTH 6666 0
DWIDTH 100 0
BBX 22 23 2 1
BITMAP
F001E0
F8FFE0
FFE3E0
F9E1F0
C1E000
01E000
0F3FF8
1E0F3C
3C1E3C
3C1E38
3C0FF8
3C0000
3C0000
1FF000
007800
007800
007800
00F800
00F000
00F000
00F000
00F000
00F800
ENDCHAR
STARTCHAR char160
ENCODING 160
SWIDTH 5333 0
DWIDTH 80 0
BBX 17 21 2 1
BITMAP
3E0000
3E0000
3E0000
1E0000
1E0000
1E0000
13C000
03C000
078000
0F1800
1FFC00
1E3E00
3C1E00
3C1E00
781E00
781F00
F81F00
F80F00
F00F00
F00F00
F00780
ENDCHAR
STARTCHAR char161
ENCODING 161
SWIDTH 7466 0
DWIDTH 112 0
BBX 25 22 2 0
BITMAP
02000000
1F000000
1F000000
1F000000
1F000000
1F000000
0F600000
01E00000
03C00000
07800000
079C0000
0FFE0000
1F1F0000
1E0FFF00
3C0F1F00
7C0F0F80
7C0F0780
780F0300
780F8000
F80F8000
FC078000
00020000
ENDCHAR
STARTCHAR char162
ENCODING 162
SWIDTH 7466 0
DWIDTH 112 0
BBX 25 23 2 -1
BITMAP
1E000000
1E000000
1E000000
1E000000
1E000000
1E000000
0DE00000
03C00000
03C00000
07800000
0FFE0000
1E1E0000
1E1F0000
3C0F0000
3C0F0000
7C0F0000
780F0000
F80F0000
F80F8780
F80F8F00
FC07FF00
00000F80
00000780
ENDCHAR
STARTCHAR char160
ENCODING 163
SWIDTH 5333 0
DWIDTH 80 0
BBX 17 21 2 1
BITMAP
3E0000
3E0000
3E0000
1E0000
1E0000
1E0000
13C000
03C000
078000
0F1800
1FFC00
1E3E00
3C1E00
3C1E00
781E00
781F00
F81F00
F80F00
F00F00
F00F00
F00780
ENDCHAR
STARTCHAR char163
ENCODING 164
SWIDTH 6400 0
DWIDTH 96 0
BBX 21 20 2 1
BITMAP
7C0000
3E0000
3E0000
1E0000
1E0000
1FC000
1BC000
078000
0F0000
0F0000
1FF800
3C7C00
3C3C00
783C60
783FF8
F83CF8
F03C78
F03C70
F83CE0
F83FC0
ENDCHAR
STARTCHAR char164
ENCODING 165
SWIDTH 5066 0
DWIDTH 76 0
BBX 16 22 2 1
BITMAP
7800
FC00
FC00
F980
0F80
0F00
1E00
1E40
0380
0780
0F00
0FF8
1E7C
3C3C
3C3C
781E
781E
F81E
F81E
F81F
F80F
F00F
ENDCHAR
STARTCHAR char165
ENCODING 166
SWIDTH 5066 0
DWIDTH 76 0
BBX 16 20 2 1
BITMAP
1F00
1F00
0F00
0F00
0F00
0F00
0DE0
01C0
03C0
0780
0FFC
0E1E
1E1E
3C1E
3C1E
781F
F81F
F80F
F800
FC00
ENDCHAR
STARTCHAR char168
ENCODING 168
SWIDTH 4800 0
DWIDTH 72 0
BBX 15 22 2 1
BITMAP
F000
F000
F000
F000
F000
F3E0
FE38
9C3C
383C
383C
783C
783C
783C
783C
783C
783C
783C
783C
783C
783C
783E
301C
ENDCHAR
STARTCHAR char169
ENCODING 169
SWIDTH 6933 0
DWIDTH 104 0
BBX 23 21 2 1
BITMAP
F80000
780000
780000
780000
780000
79F800
7F1E00
0E0E00
1E0F00
1C0F00
1C0F0E
3C0FFE
3C0F3E
3C0F1E
3C0F04
3C0F00
3C0F00
3C0F00
3C0F00
3E0F00
1E0F80
ENDCHAR
STARTCHAR char170
ENCODING 170
SWIDTH 6933 0
DWIDTH 104 0
BBX 23 24 2 -1
BITMAP
300000
F00000
F00000
F00000
F00000
F00000
F7F800
FE3C00
1C1E00
381E00
381E00
381E00
781E00
781E00
781E00
781E00
781E00
781E00
781E00
781E1C
3C1E3C
381FFC
00003E
00003E
ENDCHAR
STARTCHAR char171
ENCODING 171
SWIDTH 5066 0
DWIDTH 76 0
BBX 16 21 2 1
BITMAP
F800
7800
7800
7800
7800
79F8
7E1C
0C1E
1C1E
1C1E
3C1E
3C1E
3C1E
3C1E
3C1E
3E1E
001E
001E
001E
001E
001F
ENDCHAR
STARTCHAR char172
ENCODING 172
SWIDTH 6933 0
DWIDTH 104 0
BBX 23 22 2 0
BITMAP
F80000
780000
780000
780000
780000
79F000
7F1C00
0C1E00
1C1E00
1C1E00
3C1E00
3C1E00
3C1E00
3C1E00
3C1E00
3C1FFC
3C1E3E
3C1E1E
3C1E1E
3C1E3E
3C1FFC
180C00
ENDCHAR
STARTCHAR char173
ENCODING 173
SWIDTH 5333 0
DWIDTH 80 0
BBX 17 22 2 1
BITMAP
780000
F80000
780000
780000
780000
780000
79FE00
7F0F00
0E0780
1E0780
3C0780
3F0780
0F0F80
1E0F00
1E0F00
1E0F00
3C0F00
3C0F00
7C0F00
7C1F00
7C1F00
7C1F00
ENDCHAR
STARTCHAR char174
ENCODING 174
SWIDTH 4800 0
DWIDTH 72 0
BBX 15 22 2 1
BITMAP
F000
F000
F000
F000
F000
F3E0
F638
9C3C
383C
383C
783C
783C
783C
783C
783C
783E
7818
7800
7800
7800
7800
7000
ENDCHAR
STARTCHAR char168
ENCODING 176
SWIDTH 4800 0
DWIDTH 72 0
BBX 15 22 2 1
BITMAP
F000
F000
F000
F000
F000
F3E0
FE38
9C3C
383C
383C
783C
783C
783C
783C
783C
783C
783C
783C
783C
783C
783E
301C
ENDCHAR
STARTCHAR char168
ENCODING 178
SWIDTH 4800 0
DWIDTH 72 0
BBX 15 22 2 1
BITMAP
F000
F000
F000
F000
F000
F3E0
FE38
9C3C
383C
383C
783C
783C
783C
783C
783C
783C
783C
783C
783C
783C
783E
301C
ENDCHAR
STARTCHAR char175
ENCODING 179
SWIDTH 5866 0
DWIDTH 88 0
BBX 19 23 2 0
BITMAP
300000
F80000
F00000
F00000
F00000
F00000
FFF800
1C3C00
1C3C00
383C00
783C00
783C00
783C00
783C00
003C00
007C00
0F83E0
0F01E0
0F01E0
1C01E0
0001E0
0001E0
0001E0
ENDCHAR
STARTCHAR char168
ENCODING 180
SWIDTH 4800 0
DWIDTH 72 0
BBX 15 22 2 1
BITMAP
F000
F000
F000
F000
F000
F3E0
FE38
9C3C
383C
383C
783C
783C
783C
783C
783C
783C
783C
783C
783C
783C
783E
301C
ENDCHAR
STARTCHAR char168
ENCODING 181
SWIDTH 4800 0
DWIDTH 72 0
BBX 15 22 2 1
BITMAP
F000
F000
F000
F000
F000
F3E0
FE38
9C3C
383C
383C
783C
783C
783C
783C
783C
783C
783C
783C
783C
783C
783E
301C
ENDCHAR
STARTCHAR char184
ENCODING 184
SWIDTH 6400 0
DWIDTH 96 0
BBX 21 24 2 1
BITMAP
000180
E00700
73FF00
7FE700
F3C380
E3C000
03C000
03CF80
03F8E0
0070F0
00E0F0
00E0F0
01E0F0
01E0F0
01E0F0
01E0F0
01E0F0
01E0F0
01E0F0
01E0F0
01E0F0
01E0F0
01E0F8
00C070
ENDCHAR
STARTCHAR char169
ENCODING 185
SWIDTH 6933 0
DWIDTH 104 0
BBX 23 21 2 1
BITMAP
F80000
780000
780000
780000
780000
79F800
7F1E00
0E0E00
1E0F00
1C0F00
1C0F0E
3C0FFE
3C0F3E
3C0F1E
3C0F04
3C0F00
3C0F00
3C0F00
3C0F00
3E0F00
1E0F80
ENDCHAR
STARTCHAR char170
ENCODING 186
SWIDTH 6933 0
DWIDTH 104 0
BBX 23 24 2 -1
BITMAP
300000
F00000
F00000
F00000
F00000
F00000
F7F800
FE3C00
1C1E00
381E00
381E00
381E00
781E00
781E00
781E00
781E00
781E00
781E00
781E00
781E1C
3C1E3C
381FFC
00003E
00003E
ENDCHAR
STARTCHAR char171
ENCODING 187
SWIDTH 5066 0
DWIDTH 76 0
BBX 16 21 2 1
BITMAP
F800
7800
7800
7800
7800
79F8
7E1C
0C1E
1C1E
1C1E
3C1E
3C1E
3C1E
3C1E
3C1E
3E1E
001E
001E
001E
001E
001F
ENDCHAR
STARTCHAR char172
ENCODING 188
SWIDTH 6933 0
DWIDTH 104 0
BBX 23 22 2 0
BITMAP
F80000
780000
780000
780000
780000
79F000
7F1C00
0C1E00
1C1E00
1C1E00
3C1E00
3C1E00
3C1E00
3C1E00
3C1E00
3C1FFC
3C1E3E
3C1E1E
3C1E1E
3C1E3E
3C1FFC
180C00
ENDCHAR
STARTCHAR char173
ENCODING 189
SWIDTH 5333 0
DWIDTH 80 0
BBX 17 22 2 1
BITMAP
780000
F80000
780000
780000
780000
780000
79FE00
7F0F00
0E0780
1E0780
3C0780
3F0780
0F0F80
1E0F00
1E0F00
1E0F00
3C0F00
3C0F00
7C0F00
7C1F00
7C1F00
7C1F00
ENDCHAR
STARTCHAR char174
ENCODING 190
SWIDTH 4800 0
DWIDTH 72 0
BBX 15 22 2 1
BITMAP
F000
F000
F000
F000
F000
F3E0
F638
9C3C
383C
383C
783C
783C
783C
783C
783C
783E
7818
7800
7800
7800
7800
7000
ENDCHAR
STARTCHAR char184
ENCODING 192
SWIDTH 6400 0
DWIDTH 96 0
BBX 21 24 2 1
BITMAP
000180
E00700
73FF00
7FE700
F3C380
E3C000
03C000
03CF80
03F8E0
0070F0
00E0F0
00E0F0
01E0F0
01E0F0
01E0F0
01E0F0
01E0F0
01E0F0
01E0F0
01E0F0
01E0F0
01E0F0
01E0F8
00C070
ENDCHAR
STARTCHAR char184
ENCODING 194
SWIDTH 6400 0
DWIDTH 96 0
BBX 21 24 2 1
BITMAP
000180
E00700
73FF00
7FE700
F3C380
E3C000
03C000
03CF80
03F8E0
0070F0
00E0F0
00E0F0
01E0F0
01E0F0
01E0F0
01E0F0
01E0F0
01E0F0
01E0F0
01E0F0
01E0F0
01E0F0
01E0F8
00C070
ENDCHAR
STARTCHAR char175
ENCODING 195
SWIDTH 5866 0
DWIDTH 88 0
BBX 19 23 2 0
BITMAP
300000
F80000
F00000
F00000
F00000
F00000
FFF800
1C3C00
1C3C00
383C00
783C00
783C00
783C00
783C00
003C00
007C00
0F83E0
0F01E0
0F01E0
1C01E0
0001E0
0001E0
0001E0
ENDCHAR
STARTCHAR char184
ENCODING 196
SWIDTH 6400 0
DWIDTH 96 0
BBX 21 24 2 1
BITMAP
000180
E00700
73FF00
7FE700
F3C380
E3C000
03C000
03CF80
03F8E0
0070F0
00E0F0
00E0F0
01E0F0
01E0F0
01E0F0
01E0F0
01E0F0
01E0F0
01E0F0
01E0F0
01E0F0
01E0F0
01E0F8
00C070
ENDCHAR
STARTCHAR char184
ENCODING 197
SWIDTH 6400 0
DWIDTH 96 0
BBX 21 24 2 1
BITMAP
000180
E00700
73FF00
7FE700
F3C380
E3C000
03C000
03CF80
03F8E0
0070F0
00E0F0
00E0F0
01E0F0
01E0F0
01E0F0
01E0F0
01E0F0
01E0F0
01E0F0
01E0F0
01E0F0
01E0F0
01E0F8
00C070
ENDCHAR
STARTCHAR char200
ENCODING 200
SWIDTH 6133 0
DWIDTH 92 0
BBX 20 15 2 4
BITMAP
03FFC0
0EF9E0
1CF9E0
38F1F0
78F0F0
F8F0F0
F0F0F0
F0F1F0
F0F1E0
F1F1E0
F1E1E0
F1E3C0
F1F780
FFFC00
380000
ENDCHAR
STARTCHAR char200
ENCODING 201
SWIDTH 6133 0
DWIDTH 92 0
BBX 20 15 2 4
BITMAP
03FFC0
0EF9E0
1CF9E0
38F1F0
78F0F0
F8F0F0
F0F0F0
F0F1F0
F0F1E0
F1F1E0
F1E1E0
F1E3C0
F1F780
FFFC00
380000
ENDCHAR
STARTCHAR char202
ENCODING 202
SWIDTH 5866 0
DWIDTH 88 0
BBX 19 22 2 -1
BITMAP
01FF80
1FF3C0
38F1E0
78F1E0
78E1E0
F1E3E0
F1E3C0
F1E3C0
F1E780
7FFE00
39E000
01E000
01E000
01E000
03E000
03C000
03C000
03C3C0
03C780
03FF80
0007C0
000380
ENDCHAR
STARTCHAR char203
ENCODING 203
SWIDTH 5866 0
DWIDTH 88 0
BBX 19 20 2 1
BITMAP
000200
07FFC0
1CF7C0
38F3E0
78F1E0
F8F1E0
F0F3E0
F0E3C0
F1E3C0
F9E780
7FFC00
01E000
01E000
01E000
01E000
03E000
03E000
03E000
03C000
03E000
ENDCHAR
STARTCHAR char204
ENCODING 204
SWIDTH 5866 0
DWIDTH 88 0
BBX 19 20 2 1
BITMAP
001F00
0FF3C0
3CF3C0
78F1E0
78E1E0
F0E3E0
F1E3C0
F1E3C0
F1E380
79FF00
7FE000
01E000
01E000
01E300
01FF80
01C7C0
03C3C0
03C3C0
03C780
03FE00
ENDCHAR
STARTCHAR char205
ENCODING 205
SWIDTH 8266 0
DWIDTH 124 0
BBX 28 15 2 3
BITMAP
0019C000
07FFE000
1E78F000
3C78F000
3878F0F0
7878F1E0
78F0FFE0
F8F0F3E0
F0F0F1F0
F0F0F000
F0F0F000
F0F1E000
F0F3C000
F9FF8000
7F000000
ENDCHAR
STARTCHAR char206
ENCODING 206
SWIDTH 6400 0
DWIDTH 96 0
BBX 21 21 2 1
BITMAP
01FFE0
0F78F0
1C78F0
3C78F8
7878F8
7878F0
7870F0
7870F0
7871E0
78FBC0
3FFE00
01E000
078000
0F0000
1E0000
3C0000
780000
780000
F00000
F80000
F00000
ENDCHAR
STARTCHAR char208
ENCODING 208
SWIDTH 4266 0
DWIDTH 64 0
BBX 13 19 2 1
BITMAP
07F0
1EF0
3C78
3C78
7878
7878
7878
7878
F078
F0F0
F0F0
F0F0
F0F0
F1E0
F1E0
F1C0
F380
FE00
6000
ENDCHAR
STARTCHAR char209
ENCODING 209
SWIDTH 6400 0
DWIDTH 96 0
BBX 21 19 2 1
BITMAP
07F000
1EF000
3C7800
3C7800
787800
787800
787800
787870
F07FF0
F0F1F0
F0F0F0
F0F078
F0F000
F1E000
F1E000
F1C000
F38000
FE0000
600000
ENDCHAR
STARTCHAR char210
ENCODING 210
SWIDTH 5600 0
DWIDTH 84 0
BBX 18 20 2 0
BITMAP
078000
1CC000
38E000
78E000
F0E000
F0E000
F1E000
F1FE00
739E00
3E1E00
001E00
003C00
003C00
007800
007800
00F1C0
00F380
00FF80
00F3C0
0001C0
ENDCHAR
STARTCHAR char211
ENCODING 211
SWIDTH 4800 0
DWIDTH 72 0
BBX 15 19 2 1
BITMAP
0780
1CC0
38E0
78E0
F0E0
F0E0
F1E0
F1FE
739E
3E1E
001E
003C
003C
0078
0078
00F0
00F0
00F0
00F0
ENDCHAR
STARTCHAR char212
ENCODING 212
SWIDTH 6133 0
DWIDTH 92 0
BBX 20 20 2 1
BITMAP
078000
1CC000
38E000
78E000
F0E000
F0E000
F1E000
F1FE00
739E00
3E1E00
001E00
003C00
003C00
007800
007FE0
00F8F0
00F0F0
00F0E0
00FFC0
00FE00
ENDCHAR
STARTCHAR char213
ENCODING 213
SWIDTH 4266 0
DWIDTH 64 0
BBX 13 19 2 1
BITMAP
07C0
03C0
03C0
03C0
07C0
06F0
1C78
3838
3838
7838
7838
7838
F070
F0F0
F0F0
F0E0
F1E0
F3C0
7E00
ENDCHAR
STARTCHAR char214
ENCODING 214
SWIDTH 5066 0
DWIDTH 76 0
BBX 16 20 2 1
BITMAP
00FE
03CF
0387
0787
0707
0707
0707
078E
07DC
07F8
01C0
0380
0700
0E00
1C00
3C00
7800
F800
F800
F800
ENDCHAR
STARTCHAR char216
ENCODING 216
SWIDTH 4266 0
DWIDTH 64 0
BBX 13 20 2 1
BITMAP
0078
7078
7878
7878
7878
7878
7BF8
7FF8
7878
78F8
78F8
F0F0
F0F0
F0F0
F0F0
F0F0
F0F0
F0F0
F0F0
00C0
ENDCHAR
STARTCHAR char217
ENCODING 217
SWIDTH 6666 0
DWIDTH 100 0
BBX 22 19 2 1
BITMAP
003C00
783C00
783C00
783C00
783C00
783C1C
7FFFFC
7BFC7C
783C7C
78383C
783800
787800
707800
F07800
F07800
F07800
F07800
F07800
F87800
ENDCHAR
STARTCHAR char218
ENCODING 218
SWIDTH 6400 0
DWIDTH 96 0
BBX 21 22 2 -1
BITMAP
000C00
183C00
783C00
783C00
383C00
783C00
783C00
7FFC00
7BFC00
783C00
783C00
783C00
787800
787800
707800
707800
F07838
F078F0
F07FF0
6071F0
0000F8
000060
ENDCHAR
STARTCHAR char219
ENCODING 219
SWIDTH 4266 0
DWIDTH 64 0
BBX 13 19 2 1
BITMAP
00F8
F078
F878
7878
7878
FBF0
FFF0
F8F0
F0F0
F0F0
F0F0
F0F0
F0F0
E0F0
00F0
00E0
01E0
01E0
01F0
ENDCHAR
STARTCHAR char220
ENCODING 220
SWIDTH 5600 0
DWIDTH 84 0
BBX 18 19 2 1
BITMAP
000800
103C00
783C00
783C00
783C00
783C00
79FC00
7FFC00
787800
787800
707800
707800
F07800
F07FC0
F079C0
F079C0
F07BC0
F0FF80
F07C00
ENDCHAR
STARTCHAR char221
ENCODING 221
SWIDTH 5866 0
DWIDTH 88 0
BBX 19 19 2 1
BITMAP
0003C0
0301E0
7FC1E0
F3C3C0
E3C3C0
C3FBC0
03FFC0
03C3C0
03C3C0
03C3C0
03C3C0
03C3C0
03C7C0
03C780
03C780
078780
078780
07C780
000200
ENDCHAR
STARTCHAR char222
ENCODING 222
SWIDTH 4533 0
DWIDTH 68 0
BBX 14 18 2 1
BITMAP
003C
7C3C
3C3C
3C3C
3C3C
3C78
3FF8
3FF8
3878
7878
7878
7878
7878
7800
7800
7800
F800
F800
ENDCHAR
STARTCHAR char223
ENCODING 223
SWIDTH 5866 0
DWIDTH 88 0
BBX 19 22 2 -1
BITMAP
003800
783C00
3C3C00
3C3C00
3C3C00
3C7800
7C7800
787800
7FF800
787800
787800
787800
78F800
F0F000
F0F000
60F000
00F000
00F000
3FFFE0
7C01E0
7800E0
700000
ENDCHAR
STARTCHAR char224
ENCODING 224
SWIDTH 8266 0
DWIDTH 124 0
BBX 28 18 2 1
BITMAP
7FE03FE0
7CF079E0
78F0F1F0
78F8F060
E0F8F000
00FFF000
00F0F000
00F0F000
00F1F000
00F1F000
00F1E000
00F1E000
00F1E000
01F1E000
01E1E000
01E1E000
01E1E000
00E1E000
ENDCHAR
STARTCHAR char225
ENCODING 225
SWIDTH 8000 0
DWIDTH 120 0
BBX 27 18 2 1
BITMAP
0F807FC0
F9E073C0
F9E0F3C0
F1F1E1E0
E1F1E000
00FFE000
01FFFFE0
01E1E3C0
01E1E3C0
01E1E3E0
01E3E0C0
01E3C000
01E3C000
01E3C000
01E3C000
03E3C000
03C3C000
03E3C000
ENDCHAR
STARTCHAR char224
ENCODING 226
SWIDTH 8266 0
DWIDTH 124 0
BBX 28 18 2 1
BITMAP
7FE03FE0
7CF079E0
78F0F1F0
78F8F060
E0F8F000
00FFF000
00F0F000
00F0F000
00F1F000
00F1F000
00F1E000
00F1E000
00F1E000
01F1E000
01E1E000
01E1E000
01E1E000
00E1E000
ENDCHAR
STARTCHAR char227
ENCODING 227
SWIDTH 8266 0
DWIDTH 124 0
BBX 28 18 2 1
BITMAP
7FE03FE0
7CF079F0
78F8F0F0
78F8F000
C0F8F000
00FFF000
00F7F000
00F0F000
00F0F000
00F1E000
00F1E000
00F1E000
0001E000
0001E000
0001E000
0001E000
0001E000
00018000
ENDCHAR
STARTCHAR char228
ENCODING 228
SWIDTH 8266 0
DWIDTH 124 0
BBX 28 18 2 1
BITMAP
07C01FE0
7CE079E0
78F0F1F0
78F0F0F0
F0F0F000
C0F0F000
00FFF000
00F9F000
00F1E000
00F1E000
00F1E000
00F1E000
00F1FF80
01E1E780
01E1E3C0
01E1E380
01E1EF80
01F1FC00
ENDCHAR
STARTCHAR char229
ENCODING 229
SWIDTH 8266 0
DWIDTH 124 0
BBX 28 25 2 1
BITMAP
E0070000
F00E0000
F01E0000
FFFE0000
07800000
03800000
03800000
03800FE0
3FE03DE0
78F071E0
78F0F1F0
F0F0F000
F0F0F000
00F1F000
00F1F000
00FFE000
00F1E000
00F1E000
00F1E000
01F1E000
01E1E000
01E1E000
01E1E000
01E3E000
01E1C000
ENDCHAR
STARTCHAR char230
ENCODING 230
SWIDTH 8266 0
DWIDTH 124 0
BBX 28 18 2 1
BITMAP
0FC01FE0
7CE079E0
78F0F1F0
78F0F0F0
70F0F000
80F0F000
00FFF000
00FCF000
00F1F000
00F1F000
00F1E000
00F1E000
00E1F000
01E00000
01E00000
01E00000
01E00000
01E00000
ENDCHAR
STARTCHAR char232
ENCODING 232
SWIDTH 4266 0
DWIDTH 64 0
BBX 13 20 2 1
BITMAP
07F0
3C70
7878
F8F0
F0F0
F1F0
F1E0
F7C0
F800
7800
7800
7C00
3C00
3E00
1E00
1E00
1E00
1E00
1E00
1E00
ENDCHAR
STARTCHAR char233
ENCODING 233
SWIDTH 4800 0
DWIDTH 72 0
BBX 15 20 2 1
BITMAP
00E0
1FF0
3C70
7878
F0F0
F0F0
F1F0
F3E0
FF80
F000
7000
7C04
3FFC
3E7E
3E3E
1E00
1E00
1E00
1E00
1F00
ENDCHAR
STARTCHAR char234
ENCODING 234
SWIDTH 5866 0
DWIDTH 88 0
BBX 19 20 2 1
BITMAP
07F000
3C7000
787000
F8F000
F0F000
F1E000
F1E000
F7C000
F80000
787800
7C3800
3E3800
3FF800
1E7FE0
1E01E0
1E01E0
1E01E0
1E0020
1E0000
1E0000
ENDCHAR
STARTCHAR char235
ENCODING 235
SWIDTH 5066 0
DWIDTH 76 0
BBX 16 23 2 -1
BITMAP
00FE
03C7
0787
0F0F
0F0F
0F1F
0F3E
0F7C
0FF0
0F00
0F80
0780
0780
07C0
03C0
03E0
0180
FF00
7800
7800
F000
F000
8000
ENDCHAR
STARTCHAR char236
ENCODING 236
SWIDTH 5866 0
DWIDTH 88 0
BBX 19 20 2 1
BITMAP
07F000
3C7000
787000
F8F000
F0F000
F1E000
F1E000
F7C000
F80000
787800
7C3800
3E3800
3FF800
1E7FE0
1E01E0
1E01E0
1E01E0
1E0020
1E0000
1E0000
ENDCHAR
STARTCHAR char237
ENCODING 237
SWIDTH 6133 0
DWIDTH 92 0
BBX 20 21 2 1
BITMAP
03FC00
071E00
0E1F00
1E1E00
1E1E00
1E3E00
1E3C00
1E7800
1FC000
1E0000
1F0000
0F01F0
0F00F0
0F80F0
0780E0
07E1E0
383F00
F80000
700000
F00000
E00000
ENDCHAR
STARTCHAR char238
ENCODING 238
SWIDTH 5866 0
DWIDTH 88 0
BBX 19 20 2 1
BITMAP
07E000
1CF000
78F000
70F000
70F000
F0FFC0
F1E3C0
79C3C0
7B83E0
7E0000
3C0000
3E0000
3E0000
1E0000
1E0000
1E0000
1E0000
1E0000
1E0000
1F0000
ENDCHAR
STARTCHAR char240
ENCODING 240
SWIDTH 5866 0
DWIDTH 88 0
BBX 19 20 2 1
BITMAP
01FE00
070F00
0F0F00
0F0F00
0F1E00
0F1E00
0F3C00
0FF800
0F0000
0F0000
078000
07C000
07C000
03E000
0C3FC0
7C03C0
7C03C0
7801E0
7800E0
E00000
ENDCHAR
STARTCHAR char241
ENCODING 241
SWIDTH 6933 0
DWIDTH 104 0
BBX 23 21 2 1
BITMAP
00FC00
039E00
070F00
070F00
0F0F00
0F1E00
0F1E00
0FB800
07E000
078000
078000
1FFF00
F00F00
F00F02
F01FFE
E01E3E
003C1E
003C1E
007C00
007800
007000
ENDCHAR
STARTCHAR char242
ENCODING 242
SWIDTH 6933 0
DWIDTH 104 0
BBX 23 22 2 -1
BITMAP
007E00
01C700
038780
038780
078F80
078F00
078E00
079C00
03E000
03C000
03C100
1FFF80
780780
780F80
780F00
701F00
801F00
001E00
003C3C
003FFC
00007C
00003E
ENDCHAR
STARTCHAR char243
ENCODING 243
SWIDTH 5066 0
DWIDTH 76 0
BBX 16 20 2 1
BITMAP
007C
01CE
038F
070F
070F
071E
079C
07B8
07C0
07C0
0BFE
798F
780F
780F
700F
E00E
001E
001E
001E
001E
ENDCHAR
STARTCHAR char244
ENCODING 244
SWIDTH 7466 0
DWIDTH 112 0
BBX 25 22 2 0
BITMAP
00F80000
019E0000
070F0000
0E1F0000
0E1F0000
1E1E0000
1E3C0000
1E380000
1FE00000
0F000000
0F000000
0F800000
07C00000
07E00000
03F03C00
0C1FE700
7801C780
7801C780
F801C700
F001C700
0001FE00
00006000
ENDCHAR
STARTCHAR char245
ENCODING 245
SWIDTH 7200 0
DWIDTH 108 0
BBX 24 21 2 0
BITMAP
007E00
03CF00
078F00
0F0F00
0F0FE0
0F1E3E
0F1E1E
0F3C1E
0FF01E
0F8007
078000
078000
07C000
03C000
03E000
01F000
7E1FC0
7807C0
7807C0
E003C0
0001E0
ENDCHAR
STARTCHAR char246
ENCODING 246
SWIDTH 6666 0
DWIDTH 100 0
BBX 22 20 2 1
BITMAP
007F00
03C700
078F80
070F80
070F00
0F0F00
071E00
079C00
07E000
03C000
03E000
07FFF8
0E00F8
3C00F8
7C00F8
78003C
780000
F80000
780000
7C0000
ENDCHAR
STARTCHAR char247
ENCODING 247
SWIDTH 7733 0
DWIDTH 116 0
BBX 26 24 2 -1
BITMAP
00FE0000
03CF0000
078F0000
0F0F0000
0F0F0000
0F1E0000
0F3C0000
0F780000
0FF00000
0F800000
0F800000
07800000
07C00000
07C00000
03E00000
FFF00000
F81FC000
F007C000
E003C000
00E0C000
00FFFFC0
00F807C0
00F003C0
00C00100
ENDCHAR
STARTCHAR char248
ENCODING 248
SWIDTH 5866 0
DWIDTH 88 0
BBX 19 20 2 1
BITMAP
01FE00
070F00
0F0F00
0F0F00
0F1E00
0F1E00
0F3C00
0FF800
0F0000
0F0000
078000
07C000
07C000
03E000
0C3FC0
7C03C0
7C03C0
7801E0
7800E0
E00000
ENDCHAR
STARTCHAR char249
ENCODING 249
SWIDTH 6933 0
DWIDTH 104 0
BBX 23 21 2 1
BITMAP
00FC00
039E00
070F00
070F00
0F0F00
0F1E00
0F1E00
0FB800
07E000
078000
078000
1FFF00
F00F00
F00F02
F01FFE
E01E3E
003C1E
003C1E
007C00
007800
007000
ENDCHAR
STARTCHAR char250
ENCODING 250
SWIDTH 6933 0
DWIDTH 104 0
BBX 23 22 2 -1
BITMAP
007E00
01C700
038780
038780
078F80
078F00
078E00
079C00
03E000
03C000
03C100
1FFF80
780780
780F80
780F00
701F00
801F00
001E00
003C3C
003FFC
00007C
00003E
ENDCHAR
STARTCHAR char251
ENCODING 251
SWIDTH 5066 0
DWIDTH 76 0
BBX 16 20 2 1
BITMAP
007C
01CE
038F
070F
070F
071E
079C
07B8
07C0
07C0
0BFE
798F
780F
780F
700F
E00E
001E
001E
001E
001E
ENDCHAR
STARTCHAR char252
ENCODING 252
SWIDTH 7466 0
DWIDTH 112 0
BBX 25 22 2 0
BITMAP
00F80000
019E0000
070F0000
0E1F0000
0E1F0000
1E1E0000
1E3C0000
1E380000
1FE00000
0F000000
0F000000
0F800000
07C00000
07E00000
03F03C00
0C1FE700
7801C780
7801C780
F801C700
F001C700
0001FE00
00006000
ENDCHAR
STARTCHAR char253
ENCODING 253
SWIDTH 7200 0
DWIDTH 108 0
BBX 24 21 2 0
BITMAP
007E00
03CF00
078F00
0F0F00
0F0FE0
0F1E3E
0F1E1E
0F3C1E
0FF01E
0F8007
078000
078000
07C000
03C000
03E000
01F000
7E1FC0
7807C0
7807C0
E003C0
0001E0
ENDCHAR
STARTCHAR char254
ENCODING 254
SWIDTH 6666 0
DWIDTH 100 0
BBX 22 20 2 1
BITMAP
007F00
03C700
078F80
070F80
070F00
0F0F00
071E00
079C00
07E000
03C000
03E000
07FFF8
0E00F8
3C00F8
7C00F8
78003C
780000
F80000
780000
7C0000
ENDCHAR
STARTCHAR char255
ENCODING 255
SWIDTH 7733 0
DWIDTH 116 0
BBX 26 24 2 -1
BITMAP
00FE0000
03CF0000
078F0000
0F0F0000
0F0F0000
0F1E0000
0F3C0000
0F780000
0FF00000
0F800000
0F800000
07800000
07C00000
07C00000
03E00000
FFF00000
F81FC000
F007C000
E003C000
00E0C000
00FFFFC0
00F807C0
00F003C0
00C00100
ENDCHAR
STARTCHAR char256
ENCODING 256
SWIDTH 6133 0
DWIDTH 92 0
BBX 20 26 2 0
BITMAP
700070
3C00F0
3FFFF0
3C78F0
7C7870
00F800
01CE00
038F00
070F00
0F0F00
0F0F00
0F1F00
0F3E00
0FFC00
0F0000
0F0000
0F0000
070000
078000
078000
07E000
383FC0
F003C0
F003C0
F001E0
C00000
ENDCHAR
STARTCHAR char257
ENCODING 257
SWIDTH 7200 0
DWIDTH 108 0
BBX 24 25 2 1
BITMAP
780078
7C00F0
7FFFF0
7C78F8
F07800
00F800
018E00
070F00
070F00
0F0F00
0F1F00
0F1E00
0F3E00
07FC00
038000
03C000
07FF80
1C0FFE
7C0F1E
7C0F1E
780F0F
701E00
001E00
001E00
001E00
ENDCHAR
STARTCHAR char258
ENCODING 258
SWIDTH 6400 0
DWIDTH 96 0
BBX 21 28 2 -1
BITMAP
000030
F801F0
7C01F0
7FFFF0
F8F0F8
00F000
03F800
071C00
0E1E00
0E1E00
0E1E00
0E1E00
0E3C00
0F7800
07F000
038000
01C200
0FFF00
3C0F00
781E00
781E00
781E00
E01E00
003E78
003CF0
003FF0
000078
000038
ENDCHAR
STARTCHAR char259
ENCODING 259
SWIDTH 5866 0
DWIDTH 88 0
BBX 19 26 2 0
BITMAP
0001E0
7C03C0
7C1FC0
7FF3E0
79F1C0
01F000
033C00
0F1E00
0E1E00
1E1E00
1E1E00
1E3C00
1E7C00
1EF800
1F0000
0F0000
0FFE00
1E1E00
701E00
F81E00
F01E00
F03C00
E03C00
003C00
003C00
003000
ENDCHAR
STARTCHAR char260
ENCODING 260
SWIDTH 6666 0
DWIDTH 100 0
BBX 22 26 2 0
BITMAP
F001F0
F801F0
FFFFF0
F8F1F0
F0F0E0
01F000
031C00
071E00
0E1E00
1E1E00
1E1E00
1E3C00
1F7C00
0FF000
0F0000
0F8000
0F8000
078000
07C000
03E000
0FF000
181FF8
7C039C
78071C
78071C
0003F8
ENDCHAR
STARTCHAR char261
ENCODING 261
SWIDTH 7200 0
DWIDTH 108 0
BBX 24 26 2 1
BITMAP
00000C
3C0078
3E00F8
3E0FF8
3FF87C
787800
007800
00CF00
038780
038780
078780
078FFE
078F1E
079E1E
079C0F
07F00F
078000
078000
07C000
03C000
03E000
0FE000
383FE0
7803E0
7801E0
F001F0
ENDCHAR
STARTCHAR char262
ENCODING 262
SWIDTH 6666 0
DWIDTH 100 0
BBX 22 24 2 1
BITMAP
1F007C
0F807C
0FFFFC
0F3C3C
1C3C00
003F00
00E3C0
01E3C0
01E3E0
03C3C0
03C3C0
03C7C0
03CF80
03CE00
01F800
01E000
03F800
0E1FF0
3C00F0
7800F0
780078
F80000
F00000
F00000
ENDCHAR
STARTCHAR char263
ENCODING 263
SWIDTH 6133 0
DWIDTH 92 0
BBX 20 28 2 1
BITMAP
0001E0
7C03C0
7C1FC0
7FF3E0
79F1C0
01F000
033C00
0F1E00
0E1E00
1E1E00
1E1E00
1E3C00
1E7C00
1EF800
1F0000
0F0000
0FFE00
1E1E00
701E00
F81E00
F01E00
F03C00
E03C00
003FE0
03FFF0
03F070
038030
030000
ENDCHAR
STARTCHAR char264
ENCODING 264
SWIDTH 4000 0
DWIDTH 60 0
BBX 12 17 2 1
BITMAP
0FE0
F9F0
F8F0
78F0
F0F0
E1F0
01F0
01E0
01E0
03E0
03C0
03C0
03C0
07C0
0780
0780
07C0
ENDCHAR
STARTCHAR char265
ENCODING 265
SWIDTH 6400 0
DWIDTH 96 0
BBX 21 18 2 1
BITMAP
00C000
0FF000
78F800
787800
787800
707800
C07800
00FFF0
00F0F0
00F0F0
01F0F8
01F000
01E000
01E000
01E000
03E000
03E000
03E000
ENDCHAR
STARTCHAR char266
ENCODING 266
SWIDTH 5866 0
DWIDTH 88 0
BBX 19 20 2 -1
BITMAP
008000
1FE000
F8F000
F8F000
F0F000
E0F000
00F000
01F000
01E000
01E000
01E000
03E000
03C000
03C000
03C000
03C1E0
07C3E0
03FFE0
0003E0
0001C0
ENDCHAR
STARTCHAR char267
ENCODING 267
SWIDTH 6133 0
DWIDTH 92 0
BBX 20 19 2 0
BITMAP
001F80
01F1E0
01F1E0
01E1F0
01E1F0
0001F0
0001E0
0001E0
0001E0
0003E0
0003C0
0003C0
000780
003F00
0FF000
7C0000
7C0000
7C0000
F00000
ENDCHAR
STARTCHAR char268
ENCODING 268
SWIDTH 5066 0
DWIDTH 76 0
BBX 16 19 2 1
BITMAP
0180
1FE0
F8F0
F8F0
F0F0
E1F0
01E0
01E0
01E0
01E0
03C0
03C0
03C0
03FE
078F
078F
078E
0F9E
07F0
ENDCHAR
STARTCHAR char269
ENCODING 269
SWIDTH 5333 0
DWIDTH 80 0
BBX 17 19 2 1
BITMAP
007E00
1FC780
73C780
F1E780
F1E780
F1C780
F3C780
F38780
7E0780
000F00
000F00
000F00
001F00
001E00
003E00
003E00
003C00
003C00
003E00
ENDCHAR
STARTCHAR char270
ENCODING 270
SWIDTH 4266 0
DWIDTH 64 0
BBX 13 21 2 1
BITMAP
0780
0780
0780
0780
0780
07F0
F878
F878
F078
E0F8
00F0
00F0
01E0
01E0
03E0
03C0
03C0
0780
0780
0F80
0700
ENDCHAR
STARTCHAR char264
ENCODING 272
SWIDTH 4000 0
DWIDTH 60 0
BBX 12 17 2 1
BITMAP
0FE0
F9F0
F8F0
78F0
F0F0
E1F0
01F0
01E0
01E0
03E0
03C0
03C0
03C0
07C0
0780
0780
07C0
ENDCHAR
STARTCHAR char264
ENCODING 274
SWIDTH 4000 0
DWIDTH 60 0
BBX 12 17 2 1
BITMAP
0FE0
F9F0
F8F0
78F0
F0F0
E1F0
01F0
01E0
01E0
03E0
03C0
03C0
03C0
07C0
0780
0780
07C0
ENDCHAR
STARTCHAR char275
ENCODING 275
SWIDTH 4800 0
DWIDTH 72 0
BBX 15 20 2 1
BITMAP
1FF0
F878
7878
7078
E078
00F8
00F0
03F0
1E3C
F81E
F01E
F01E
C03E
003E
003C
003C
007C
0078
0078
007C
ENDCHAR
STARTCHAR char264
ENCODING 276
SWIDTH 4000 0
DWIDTH 60 0
BBX 12 17 2 1
BITMAP
0FE0
F9F0
F8F0
78F0
F0F0
E1F0
01F0
01E0
01E0
03E0
03C0
03C0
03C0
07C0
0780
0780
07C0
ENDCHAR
STARTCHAR char264
ENCODING 277
SWIDTH 4000 0
DWIDTH 60 0
BBX 12 17 2 1
BITMAP
0FE0
F9F0
F8F0
78F0
F0F0
E1F0
01F0
01E0
01E0
03E0
03C0
03C0
03C0
07C0
0780
0780
07C0
ENDCHAR
STARTCHAR char280
ENCODING 280
SWIDTH 4000 0
DWIDTH 60 0
BBX 12 17 2 1
BITMAP
0FE0
F9F0
F8F0
78F0
F0F0
E1F0
01F0
01E0
01E0
03E0
03C0
03C0
03C0
07C0
0780
0780
07C0
ENDCHAR
STARTCHAR char281
ENCODING 281
SWIDTH 6400 0
DWIDTH 96 0
BBX 21 18 2 1
BITMAP
00C000
0FF000
78F800
787800
787800
707800
C07800
00FFF0
00F0F0
00F0F0
01F0F8
01F000
01E000
01E000
01E000
03E000
03E000
03E000
ENDCHAR
STARTCHAR char282
ENCODING 282
SWIDTH 5866 0
DWIDTH 88 0
BBX 19 20 2 -1
BITMAP
008000
1FE000
F8F000
F8F000
F0F000
E0F000
00F000
01F000
01E000
01E000
01E000
03E000
03C000
03C000
03C000
03C1E0
07C3E0
03FFE0
0003E0
0001C0
ENDCHAR
STARTCHAR char283
ENCODING 283
SWIDTH 6133 0
DWIDTH 92 0
BBX 20 19 2 0
BITMAP
001F80
01F1E0
01F1E0
01E1F0
01E1F0
0001F0
0001E0
0001E0
0001E0
0003E0
0003C0
0003C0
000780
003F00
0FF000
7C0000
7C0000
7C0000
F00000
ENDCHAR
STARTCHAR char284
ENCODING 284
SWIDTH 5066 0
DWIDTH 76 0
BBX 16 19 2 1
BITMAP
0180
1FE0
F8F0
F8F0
F0F0
E1F0
01E0
01E0
01E0
01E0
03C0
03C0
03C0
03FE
078F
078F
078E
0F9E
07F0
ENDCHAR
STARTCHAR char285
ENCODING 285
SWIDTH 5333 0
DWIDTH 80 0
BBX 17 19 2 1
BITMAP
007E00
1FC780
73C780
F1E780
F1E780
F1C780
F3C780
F38780
7E0780
000F00
000F00
000F00
001F00
001E00
003E00
003E00
003C00
003C00
003E00
ENDCHAR
STARTCHAR char286
ENCODING 286
SWIDTH 4266 0
DWIDTH 64 0
BBX 13 21 2 1
BITMAP
0780
0780
0780
0780
0780
07F0
F878
F878
F078
E0F8
00F0
00F0
01E0
01E0
03E0
03C0
03C0
0780
0780
0F80
0700
ENDCHAR
STARTCHAR char288
ENCODING 288
SWIDTH 7200 0
DWIDTH 108 0
BBX 24 15 2 1
BITMAP
003FF0
03FC7C
0E3C3C
1C3C1E
3C3C1E
3C3C1E
383C1E
783C1E
783C1E
783C1E
783C1E
F83C1E
F83C1E
F83C1E
703E1F
ENDCHAR
STARTCHAR char289
ENCODING 289
SWIDTH 8533 0
DWIDTH 128 0
BBX 29 15 2 1
BITMAP
01FFF000
06787800
1C787C00
38783C00
38783C30
78783CF0
78783FF0
70783CF0
F0783C38
F0783C00
F0783C00
F0783C00
F0783C00
F8783C00
00203E00
ENDCHAR
STARTCHAR char290
ENCODING 290
SWIDTH 8533 0
DWIDTH 128 0
BBX 29 17 2 1
BITMAP
001FE000
03FCF800
0E787800
0C787C00
1C783C00
38783C00
78783C00
78783C00
F8783C00
F0783C00
F0783C00
F0783C00
F0783C78
F0783CF8
F87C3FF0
000000F0
00000038
ENDCHAR
STARTCHAR char291
ENCODING 291
SWIDTH 6933 0
DWIDTH 104 0
BBX 23 20 2 1
BITMAP
000060
03FFF8
0F3C3C
1E3C3C
3C3C3C
3C3C3E
783C3C
783C3C
787C3C
787C3C
F8783C
78787C
60707C
000078
000078
000078
000078
000078
000078
000060
ENDCHAR
STARTCHAR char292
ENCODING 292
SWIDTH 8266 0
DWIDTH 124 0
BBX 28 16 2 1
BITMAP
000FE000
01FCF800
073C7800
0E3C3C00
1C3C3C00
3C3C3C00
383C3C00
78783C00
78787800
78787800
78787800
F8787FE0
F87878F0
F87878F0
F87879E0
70787FE0
ENDCHAR
STARTCHAR char293
ENCODING 293
SWIDTH 5866 0
DWIDTH 88 0
BBX 19 17 2 1
BITMAP
03FF80
1CF1C0
38F1E0
78F1E0
F0F0E0
F1E1E0
F1F9E0
007800
007000
00F000
00F000
00F000
00F000
00F000
01E000
01F000
00C000
ENDCHAR
STARTCHAR char294
ENCODING 294
SWIDTH 6666 0
DWIDTH 100 0
BBX 22 16 2 1
BITMAP
007FF8
01FC38
063C3C
0C3C3C
1C3C3C
3C3C3C
383C3C
783C3C
78383C
78383C
F8783C
F87C20
F80000
F80000
F80000
F80000
ENDCHAR
STARTCHAR char295
ENCODING 295
SWIDTH 8000 0
DWIDTH 120 0
BBX 27 21 2 1
BITMAP
00006000
03FFF800
0F3C3C00
1E3C3C00
3C3C3C00
3C3C3C00
783C3C00
783C3C00
787C3C00
787C3C00
78783C00
78787C00
70707800
00007800
00007800
00007800
00007F80
000FFFC0
000F01C0
000E00C0
000C0000
ENDCHAR
STARTCHAR char296
ENCODING 296
SWIDTH 9600 0
DWIDTH 144 0
BBX 33 16 2 1
BITMAP
001FFE0000
01FF038000
060F01C000
0C0F01E000
1C0F01E000
380F01E000
380F01E000
780F01E000
780F01E000
780F01E000
7FCFF9FF00
F1CF3DE780
F1CF3DE780
71CF39E780
7F8F39E700
600FE1FE00
ENDCHAR
STARTCHAR char297
ENCODING 297
SWIDTH 10133 0
DWIDTH 152 0
BBX 35 16 2 1
BITMAP
007FFF0000
03E781C000
060781C000
0C0780E000
180780F000
380780FFC0
780700F3C0
700F00F3C0
700F00F1E0
F00F00F000
FFCFFCFF00
F1CF3CF3C0
F1CF3CF3C0
F1CF3CF3C0
F38F78F780
FF0FF0FF80
ENDCHAR
STARTCHAR char298
ENCODING 298
SWIDTH 9866 0
DWIDTH 148 0
BBX 34 19 2 -2
BITMAP
000FFE0000
01FF838000
060780E000
1C0780F000
180780F000
380780F000
780F00F000
700F00F000
700F00F000
FF8F00F000
F3CFFCF000
F3CF3CF000
F3CF3CF000
F3CF3CF000
FF0F38F1C0
600FE0FFC0
0000000380
00000003C0
00000001C0
ENDCHAR
STARTCHAR char299
ENCODING 299
SWIDTH 8800 0
DWIDTH 132 0
BBX 30 18 2 1
BITMAP
01FFFF00
0F0783C0
1C0780C0
380780E0
7FCFF8E0
71CF3CE0
F3CF3DE0
F3DE39E0
FF9FF1E0
000803C0
000003C0
00000780
00000798
00000FFC
00000F3C
00001F3C
00001E3C
00001FF0
ENDCHAR
STARTCHAR char300
ENCODING 300
SWIDTH 10133 0
DWIDTH 152 0
BBX 35 16 2 1
BITMAP
001FFE0000
01FF038000
060F01C000
0C0F01E000
1C0F01E1C0
380F01FFC0
380F01FE60
780F01EE60
780F01E7E0
780F01E000
7FCFF9FF00
F1CF3DE780
F1CF3DE780
71CF39E780
7F8F39E700
600FE1FE00
ENDCHAR
STARTCHAR char301
ENCODING 301
SWIDTH 9066 0
DWIDTH 136 0
BBX 31 19 2 1
BITMAP
01FFFE00
0F03C380
1C078380
3F878380
79C783FC
79EF07BC
79EF079E
F1CF0F9C
FF87CF3C
60078FF8
000F8000
000F0000
000F0000
001FF000
001E7800
001C7800
003C7000
003FF000
00184000
ENDCHAR
STARTCHAR char302
ENCODING 302
SWIDTH 9600 0
DWIDTH 144 0
BBX 33 18 2 1
BITMAP
00FFFFC000
030F01E000
0E0F01E000
0C0F01E000
1C0FF9E200
380F3DFF80
380F3DE780
781E39E780
781FF1E700
700E01FE00
F000000000
FF80000000
F3C0000000
F3C0000000
F3C0000000
F380000000
FF00000000
F000000000
ENDCHAR
STARTCHAR char303
ENCODING 303
SWIDTH 8533 0
DWIDTH 128 0
BBX 29 20 2 0
BITMAP
01FFFF00
0F0783C0
1C0780C0
380780E0
7FCFF8E0
71CF3CE0
F3CF3DE0
F3DE39E0
FF9FF1E0
000803C0
000003C0
00000780
00000780
00000F80
00000F00
00001F00
0003F8F8
0003C0F8
00078078
00070018
ENDCHAR
STARTCHAR char304
ENCODING 304
SWIDTH 5066 0
DWIDTH 76 0
BBX 16 22 2 1
BITMAP
03C0
03C0
03C0
03C0
0FF0
1C78
1C78
3C78
3C78
3C78
3CF0
0DE0
03E0
07C0
0F3C
1E3E
3C1E
7C1F
F81F
F81F
F81F
781E
ENDCHAR
STARTCHAR char305
ENCODING 305
SWIDTH 6933 0
DWIDTH 104 0
BBX 23 22 2 1
BITMAP
03C000
03C000
03C000
03C000
0FF000
1C7800
1C7800
3C7800
3C7800
3C7800
3CF000
0DE000
03E000
07C000
0F3C00
1E3E00
3C1E0C
7C1E3C
F81FFC
F81E3C
F81E1E
781F00
ENDCHAR
STARTCHAR char306
ENCODING 306
SWIDTH 7200 0
DWIDTH 108 0
BBX 24 24 2 -2
BITMAP
03C000
03C000
03C000
03C000
0FF000
1C7800
1C7800
3C7800
3C7800
3C7800
3CF000
0DE000
03E000
07C000
0F3C00
1E3E00
3C1E00
7C1E00
F81F07
F81F1F
780FFF
00001F
00001F
000004
ENDCHAR
STARTCHAR char307
ENCODING 307
SWIDTH 4533 0
DWIDTH 68 0
BBX 14 22 2 1
BITMAP
0700
0780
0700
0700
0F80
3DE0
78F0
78F0
78F0
F8F0
79E0
7FE0
07C0
0FF0
1FF8
3E38
7C38
F83C
F03C
F83C
003C
003C
ENDCHAR
STARTCHAR char308
ENCODING 308
SWIDTH 6400 0
DWIDTH 96 0
BBX 21 22 2 1
BITMAP
03C000
03C000
03C000
03C000
03C000
07F000
1E7800
1C7800
3C7800
3C7800
3CF800
1EF000
03E000
07C000
0FF800
1F3C00
3E3FF0
3E1EF8
7C1E78
781E78
F81E78
F81FF0
ENDCHAR
STARTCHAR char309
ENCODING 309
SWIDTH 6133 0
DWIDTH 92 0
BBX 20 22 2 1
BITMAP
07C000
03C000
03C000
03C000
03C000
0FF000
1C7800
3C7FE0
3C79E0
3C78F0
3CF000
1FF000
03E000
07FC00
0F3C00
1F3E00
3E1E00
3C1E00
781E00
F81E00
F81E00
781F00
ENDCHAR
STARTCHAR char310
ENCODING 310
SWIDTH 4533 0
DWIDTH 68 0
BBX 14 22 2 1
BITMAP
0F80
0780
0700
0700
0F80
3DE0
78F0
78F0
78F0
78F0
79E0
3FC0
0F80
0F10
3FF8
3C7C
7C7C
F83C
F03C
F000
F000
E000
ENDCHAR
STARTCHAR char307
ENCODING 311
SWIDTH 4533 0
DWIDTH 68 0
BBX 14 22 2 1
BITMAP
0700
0780
0700
0700
0F80
3DE0
78F0
78F0
78F0
F8F0
79E0
7FE0
07C0
0FF0
1FF8
3E38
7C38
F83C
F03C
F83C
003C
003C
ENDCHAR
STARTCHAR char312
ENCODING 312
SWIDTH 4266 0
DWIDTH 64 0
BBX 13 19 2 1
BITMAP
1FC0
79E0
E1E0
E1E0
E1E0
E3C0
7FC0
3F80
0780
0F00
1FE0
1CF0
3CF0
7878
7078
F078
F078
F078
F078
ENDCHAR
STARTCHAR char313
ENCODING 313
SWIDTH 6133 0
DWIDTH 92 0
BBX 20 19 2 1
BITMAP
1FC000
79E000
E1E000
E1E000
E1E000
E3C000
7FC000
3F8000
078000
0F0000
1FE000
1CF060
3CF1E0
787FE0
7079E0
F07870
F07800
F07800
F07800
ENDCHAR
STARTCHAR char314
ENCODING 314
SWIDTH 6133 0
DWIDTH 92 0
BBX 20 21 2 -1
BITMAP
1FC000
79E000
E1E000
E1E000
E1E000
E3C000
7FC000
3F8000
078000
0F0000
1FE000
1CF000
3CF000
787800
707800
F07800
F078E0
F07FE0
F079E0
0001E0
0000F0
ENDCHAR
STARTCHAR char315
ENCODING 315
SWIDTH 4266 0
DWIDTH 64 0
BBX 13 19 2 1
BITMAP
1FC0
79E0
E1E0
E1E0
E1E0
E3C0
7FC0
3F80
0780
0F00
1FE0
1CF0
3CF0
7878
F078
F078
0078
0078
0078
ENDCHAR
STARTCHAR char316
ENCODING 316
SWIDTH 5600 0
DWIDTH 84 0
BBX 18 19 2 1
BITMAP
1FC000
79E000
E1E000
E1E000
E1E000
E3C000
7FC000
3F8000
078000
0F0000
1FE000
1CF000
3CF000
787800
707F80
F079C0
F079C0
F07BC0
F07F80
ENDCHAR
STARTCHAR char317
ENCODING 317
SWIDTH 5600 0
DWIDTH 84 0
BBX 18 19 2 1
BITMAP
1FC000
79E380
E1FF80
E1E780
E1E780
E3C3C0
7FC000
3F8000
078000
0F0000
1FE000
1CF000
3CF000
787800
707800
F07800
F07800
F07800
F07800
ENDCHAR
STARTCHAR char318
ENCODING 318
SWIDTH 4266 0
DWIDTH 64 0
BBX 13 19 2 1
BITMAP
1FC0
79E0
E1E0
E1E0
E1E0
E3C0
7FC0
3F80
0780
0F00
1FE0
1CF0
3CF0
7870
7078
F078
F000
F000
F000
ENDCHAR
STARTCHAR char319
ENCODING 319
SWIDTH 5866 0
DWIDTH 88 0
BBX 19 22 2 1
BITMAP
1FC000
79E000
E1E000
E1E000
E1E000
E3C000
7FC000
3F8000
078000
0F0000
1FE000
1CF000
3CF000
787800
707800
F07800
007800
007F80
0FFFC0
0F01C0
0E00C0
0C0000
ENDCHAR
STARTCHAR char320
ENCODING 320
SWIDTH 4266 0
DWIDTH 64 0
BBX 13 17 2 3
BITMAP
03F0
1E78
3C78
3C78
3C78
7C78
7878
78F8
7FF8
78F8
F8F8
F0F0
F0F0
F0F0
F3E0
7E00
7000
ENDCHAR
STARTCHAR char321
ENCODING 321
SWIDTH 6400 0
DWIDTH 96 0
BBX 21 19 2 1
BITMAP
07F000
1EF000
3C7800
3C7800
787800
787800
787800
78F870
FFFFF0
F0F1F0
F0F0F0
F0F078
F0F000
F1E000
F1E000
F1C000
F38000
FE0000
600000
ENDCHAR
STARTCHAR char322
ENCODING 322
SWIDTH 5066 0
DWIDTH 76 0
BBX 16 23 2 -1
BITMAP
0180
3FE0
79E0
F1E0
F1E0
FFE0
F1E0
F1E0
F9E0
7FC0
23C0
07C0
07C0
0780
0780
0F80
0F80
0F00
0F0F
1FFF
0E1F
001F
000E
ENDCHAR
STARTCHAR char323
ENCODING 323
SWIDTH 4000 0
DWIDTH 60 0
BBX 12 20 2 1
BITMAP
0380
1FC0
79E0
F1F0
F1F0
FFF0
F1F0
F1E0
F1E0
7FE0
03C0
03C0
07C0
07C0
0780
0780
0F80
0F80
0F80
0F80
ENDCHAR
STARTCHAR char324
ENCODING 324
SWIDTH 4533 0
DWIDTH 68 0
BBX 14 20 2 1
BITMAP
1F80
7BC0
F1E0
F1E0
F3E0
F1E0
F3C0
F3C0
FFC0
7FC0
0780
0780
0F80
0F00
0FF8
1F38
1E3C
1E78
3FF8
1C20
ENDCHAR
STARTCHAR char325
ENCODING 325
SWIDTH 4266 0
DWIDTH 64 0
BBX 13 19 2 1
BITMAP
07C0
03C0
03C0
03C0
07C0
06F0
1C78
3C78
3878
7878
7FF8
7878
F8F0
F0F0
F0F0
F0E0
F1E0
F3C0
7E00
ENDCHAR
STARTCHAR char326
ENCODING 326
SWIDTH 5066 0
DWIDTH 76 0
BBX 16 20 2 1
BITMAP
00FE
03CF
038F
07FF
078F
078F
078F
078E
07DC
07F8
01C0
0380
0700
0E00
3C00
3C00
7800
F800
F800
F800
ENDCHAR
STARTCHAR char328
ENCODING 328
SWIDTH 5866 0
DWIDTH 88 0
BBX 19 19 2 1
BITMAP
003800
00F800
007800
00F800
00F000
01F000
03E000
03C000
0F8000
1E0000
3C0000
3FE000
79F000
F9F000
F1F000
F1E1E0
F1FFC0
FF03E0
7803E0
ENDCHAR
STARTCHAR char329
ENCODING 329
SWIDTH 6133 0
DWIDTH 92 0
BBX 20 22 2 1
BITMAP
00F000
00F800
00F000
00F000
01F000
01E000
07C000
0F8000
1F0000
3FF000
7CF800
78F8F0
F8F9F0
79FFF0
3FE1F0
03C0F0
03C000
078000
0F0000
0F0000
0F0000
0F8000
ENDCHAR
STARTCHAR char330
ENCODING 330
SWIDTH 6133 0
DWIDTH 92 0
BBX 20 18 2 1
BITMAP
007C00
007C00
007800
007800
00F000
01F000
03E000
078000
0F0000
1E0000
3FC000
3DE1E0
78F1F0
78F0F0
F8F1F0
FCF1E0
7FFFC0
3C0000
ENDCHAR
STARTCHAR char331
ENCODING 331
SWIDTH 5866 0
DWIDTH 88 0
BBX 19 22 2 1
BITMAP
006000
01F000
01F000
01F000
01E000
03C000
0F8000
1F0000
7C0000
FFC000
F1E000
F1E000
F1E000
F1E000
7FE3E0
01FFE0
03E3E0
03E1E0
03E0E0
03C000
03C000
03E000
ENDCHAR
STARTCHAR char332
ENCODING 332
SWIDTH 6933 0
DWIDTH 104 0
BBX 23 22 2 -1
BITMAP
001000
00F800
00F800
00F800
00F000
01F000
01E000
03C000
078000
0F0000
1E0000
3FC000
79E000
F1F000
F1E000
F1E3FC
F1E79E
F3FF1E
FE0F1E
600F1E
0007FC
000100
ENDCHAR
STARTCHAR char333
ENCODING 333
SWIDTH 5866 0
DWIDTH 88 0
BBX 19 19 2 1
BITMAP
07FFC0
1E03C0
3C03C0
7803C0
F800E0
F00000
FFC000
F3E000
F1E000
F1E000
7FE000
01FFE0
01E3E0
03E1E0
03E0E0
03C000
03C000
03C000
03C000
ENDCHAR
STARTCHAR char334
ENCODING 334
SWIDTH 6133 0
DWIDTH 92 0
BBX 20 19 2 1
BITMAP
001FC0
07F9E0
0E39E0
1C79E0
3839E0
383FC0
780000
780000
F80000
F00000
F1C000
FFE000
F1E000
F1E000
F1E0F0
F1E1E0
F3FFE0
FE01F0
7000F0
ENDCHAR
STARTCHAR char335
ENCODING 335
SWIDTH 5866 0
DWIDTH 88 0
BBX 19 26 2 0
BITMAP
00F000
00F000
00F000
00F000
00F000
01E000
03C000
0F8000
1F0000
7C0000
FFC000
F1E000
F1E000
F1E000
F1E000
7FE3E0
01FFE0
01E3E0
01E1E0
01E0E0
01E000
01E000
7F1F00
781F00
700F00
E00300
ENDCHAR
STARTCHAR char336
ENCODING 336
SWIDTH 6400 0
DWIDTH 96 0
BBX 21 19 2 1
BITMAP
001FF8
FFF878
F87878
787838
F0F000
E0F000
00F000
00F000
00F000
00F000
00F000
00F000
01F000
01E000
01E000
01E000
01E000
01F000
01F000
ENDCHAR
STARTCHAR char337
ENCODING 337
SWIDTH 6400 0
DWIDTH 96 0
BBX 21 19 2 1
BITMAP
003FF8
FFF0F0
F8F0F8
F0F078
F0F000
E0F000
00F000
00F000
01F000
01E0E0
01E3E0
01FFE0
01E3E0
01E0F0
01E000
01E000
01E000
01E000
01F000
ENDCHAR
STARTCHAR char338
ENCODING 338
SWIDTH 6400 0
DWIDTH 96 0
BBX 21 21 2 -1
BITMAP
001FF8
7FF0F8
F8F0F8
F0F078
F0F000
E0F000
00F000
00F000
01F000
01E000
01E000
01E000
01E000
01E000
01E000
01E000
01E0F0
01E7E0
00FDE0
0001F0
0000F0
ENDCHAR
STARTCHAR char339
ENCODING 339
SWIDTH 7200 0
DWIDTH 108 0
BBX 24 21 2 0
BITMAP
0003FF
03FF1F
1F0E0F
1F0E0F
1E1E03
1E1E00
101E00
001E00
001E00
001E00
001E00
001E00
001C00
003C00
00F000
0F8000
F80000
F80000
F80000
F00000
E00000
ENDCHAR
STARTCHAR char340
ENCODING 340
SWIDTH 6400 0
DWIDTH 96 0
BBX 21 18 2 1
BITMAP
001FF8
FFF0F8
F8F078
F8F078
F0F000
E0F000
00F000
00F000
00F000
01F000
01E000
01E000
01FF80
01E3C0
01E3C0
01E3C0
01E7C0
01FF80
ENDCHAR
STARTCHAR char341
ENCODING 341
SWIDTH 6666 0
DWIDTH 100 0
BBX 22 18 2 1
BITMAP
001FF8
1FF0F8
F8F0F8
F0F07C
F0F000
E0F000
00F000
003C00
003C00
003C00
003C00
003C00
003800
003800
007800
007800
007800
007C00
ENDCHAR
STARTCHAR char342
ENCODING 342
SWIDTH 7466 0
DWIDTH 112 0
BBX 25 19 2 1
BITMAP
0001FF80
03FF0F00
0F0F0F80
0F0F0780
0F0F0000
1C1F0000
001E0000
003C0000
003C0000
00F80000
01E00000
03C00000
0F800000
1E000000
3C000000
78000000
F0000000
F0000000
F8000000
ENDCHAR
STARTCHAR char336
ENCODING 343
SWIDTH 6400 0
DWIDTH 96 0
BBX 21 19 2 1
BITMAP
001FF8
FFF878
F87878
787838
F0F000
E0F000
00F000
00F000
00F000
00F000
00F000
00F000
01F000
01E000
01E000
01E000
01E000
01F000
01F000
ENDCHAR
STARTCHAR char42
ENCODING 344
SWIDTH 4800 0
DWIDTH 72 0
BBX 15 19 2 1
BITMAP
007C
003C
007C
0078
00F8
01F0
03C0
0780
0F00
3E00
7C00
780E
F83E
F01E
F03E
F03C
F8E0
7FC0
3800
ENDCHAR
STARTCHAR char26
ENCODING 345
SWIDTH 8800 0
DWIDTH 132 0
BBX 30 22 2 -1
BITMAP
001FFF80
0FF9E3C0
1E79E3C0
3C79E3C0
78F1E3C0
78F1E7C0
F8F1E780
F1F0FF80
F1E00F80
7FC00F00
30001F00
00001E00
00001E00
00003E00
00003C00
00003C00
00007C00
0000783C
00007878
00007FF8
0000007C
0000003C
ENDCHAR
STARTCHAR char330
ENCODING 346
SWIDTH 6133 0
DWIDTH 92 0
BBX 20 18 2 1
BITMAP
007C00
007C00
007800
007800
00F000
01F000
03E000
078000
0F0000
1E0000
3FC000
3DE1E0
78F1F0
78F0F0
F8F1F0
FCF1E0
7FFFC0
3C0000
ENDCHAR
STARTCHAR char354
ENCODING 353
SWIDTH 3266 0
DWIDTH 49 0
BBX 4 16 2 1
BITMAP
60
F0
F0
60
00
00
00
00
00
00
00
00
60
F0
F0
60
ENDCHAR
STARTCHAR char354
ENCODING 354
SWIDTH 3733 0
DWIDTH 56 0
BBX 11 16 2 1
BITMAP
60C0
F1E0
F1E0
60C0
0000
0000
0000
0000
0000
0000
0000
0000
60C0
F1E0
F1E0
60C0
ENDCHAR
STARTCHAR char355
ENCODING 355
SWIDTH 3733 0
DWIDTH 56 0
BBX 11 16 2 4
BITMAP
FFE0
FFE0
8020
0C00
1E00
1E00
0000
0000
0000
0000
0000
0000
0C00
1E00
1E00
0C00
ENDCHAR
STARTCHAR char355
ENCODING 356
SWIDTH 3733 0
DWIDTH 56 0
BBX 11 19 2 1
BITMAP
FFE0
FFE0
8020
0C00
1E00
1E00
0000
0000
0000
0000
0000
0000
0C00
1E00
1E00
0C00
8020
FFE0
FFE0
ENDCHAR
STARTCHAR char384
ENCODING 361
SWIDTH 4533 0
DWIDTH 68 0
BBX 15 26 2 -4
BITMAP
007C
3FFC
3C1E
3800
0000
0F80
0F80
0F80
0F80
1F00
1FE0
3EF0
7EF8
7C78
FC7C
F87C
F078
F078
F0F8
FFF0
7F00
0000
01F0
FFF0
F0F0
E000
ENDCHAR
STARTCHAR char385
ENCODING 362
SWIDTH 4000 0
DWIDTH 60 0
BBX 12 26 2 -4
BITMAP
07E0
FEE0
F0F0
C000
0000
1FC0
79E0
F1E0
F1E0
F1E0
F3C0
F7C0
FF00
F000
F000
F7C0
FFE0
F1E0
79E0
39C0
1F00
0000
0070
FFF0
F0F0
F060
ENDCHAR
STARTCHAR char386
ENCODING 363
SWIDTH 4266 0
DWIDTH 64 0
BBX 14 25 1 -4
BITMAP
03F8
3FF8
383C
7000
0000
3FFC
7C7C
7C7C
7C3C
7C08
7C00
7C00
7C00
7800
7800
7800
7800
7800
7800
7C00
0000
01E0
7FE0
78F0
F060
ENDCHAR
STARTCHAR char387
ENCODING 364
SWIDTH 3466 0
DWIDTH 52 0
BBX 12 25 1 -4
BITMAP
0FE0
F0E0
F0F0
E000
0000
0F00
39C0
79E0
79E0
F9E0
F1E0
F1E0
F1E0
F1E0
F1E0
F3C0
73C0
3700
0C00
0000
0000
0FE0
F1E0
F0F0
E000
ENDCHAR
STARTCHAR char388
ENCODING 365
SWIDTH 5066 0
DWIDTH 76 0
BBX 17 26 1 -5
BITMAP
03FC00
3FBC00
3C1C00
300000
07C000
03C000
03C000
03C000
078600
07FF00
0F0F00
1F0F80
3E0300
3C0000
7C0000
780000
F81E00
783E00
7DFE00
3FBE00
000000
000800
3FF800
3C3C00
381C00
100000
ENDCHAR
STARTCHAR char389
ENCODING 366
SWIDTH 4533 0
DWIDTH 68 0
BBX 15 26 1 -4
BITMAP
03F8
7FF8
783C
7000
0000
73C0
FFE0
79E0
73E0
E3E0
03C0
07C0
07C0
0780
0FB8
0FFC
1F3E
1F3E
1E7C
1FFC
0FC0
0000
00F8
3FF8
383C
7808
ENDCHAR
STARTCHAR char390
ENCODING 367
SWIDTH 4800 0
DWIDTH 72 0
BBX 16 26 1 -5
BITMAP
03F8
3FBC
3C3C
3800
00C0
1FF0
79F0
78F0
71F0
E1E0
01E0
03E0
03C0
07C0
0780
0780
0F9E
0FFE
0F9E
000F
0000
0038
3FF8
3C3C
3818
2000
ENDCHAR
STARTCHAR char391
ENCODING 368
SWIDTH 5866 0
DWIDTH 88 0
BBX 19 26 2 -4
BITMAP
01FF00
0FEF00
0F0780
0C0000
000000
07FFE0
7FF3C0
79F3C0
79F1E0
E1F000
01F000
01E000
01E000
01E000
01E000
01E000
01EF80
FFFF80
F80780
F00780
E003C0
000000
0FFC00
3F3C00
3C1E00
300000
ENDCHAR
STARTCHAR char392
ENCODING 369
SWIDTH 4266 0
DWIDTH 64 0
BBX 14 26 1 -5
BITMAP
01F8
7FF8
7838
7000
0000
007C
7C3C
7C3C
3C3C
3CFC
7FBC
7C3C
7C3C
7C7C
7878
7878
7878
78F0
7DE0
3F80
0000
0000
7FF0
7070
7078
E000
ENDCHAR
STARTCHAR char393
ENCODING 370
SWIDTH 4000 0
DWIDTH 60 0
BBX 13 26 1 -5
BITMAP
01F8
7FF8
7878
F000
0000
0FC0
07C0
07C0
0780
0780
0780
0780
0F80
0F80
0F80
0F80
0F00
0F80
0400
0000
0000
0000
3FF0
7878
7078
E000
ENDCHAR
STARTCHAR char394
ENCODING 371
SWIDTH 5600 0
DWIDTH 84 0
BBX 19 25 1 -4
BITMAP
007E00
0FFE00
0E0F00
1C0000
007FE0
7FF3E0
78F1E0
71F0E0
E1E000
03C000
07C000
078800
0FFC00
1E3E00
1E1E00
3C1E00
3C1E00
7C1E00
7C1F00
3E1E00
000000
000C00
3FFC00
1C1E00
3C0C00
ENDCHAR
STARTCHAR char395
ENCODING 372
SWIDTH 5866 0
DWIDTH 88 0
BBX 19 25 2 -5
BITMAP
003F80
0FF780
0F03C0
0E0000
000000
001F80
00F3C0
38F1E0
71F3E0
F1F3E0
F1E3E0
F1E3E0
F1E3E0
F1E3C0
F1E3C0
F3E3C0
7FC3C0
3803E0
000000
000000
000000
1FFF00
1E0700
1E0380
180000
ENDCHAR
STARTCHAR char396
ENCODING 373
SWIDTH 5600 0
DWIDTH 84 0
BBX 19 26 1 -4
BITMAP
001F80
1FFF80
1E0780
1C0000
000000
0033E0
F9F3E0
78F1E0
79FBE0
79FFE0
F9F7C0
F9E3C0
FBC3C0
7F07C0
100780
000780
000780
000780
000F80
000F80
000F80
000000
001E00
7FFE00
381E00
780400
ENDCHAR
STARTCHAR char397
ENCODING 374
SWIDTH 4266 0
DWIDTH 64 0
BBX 14 25 1 -4
BITMAP
01F8
3FF8
3C3C
7800
001C
7C7C
3C3C
3C7C
3C78
3C78
3E78
3FF8
00F0
00F0
01F0
01E0
01E0
01E0
01E0
01F0
0000
0070
7FF0
7878
7020
ENDCHAR
STARTCHAR char398
ENCODING 375
SWIDTH 5866 0
DWIDTH 88 0
BBX 19 26 2 -4
BITMAP
007E00
1FFE00
1E0F00
1C0000
0001E0
07FFE0
FFE3E0
F1E1E0
E3E000
C3F000
00F000
01F000
01E000
01E000
01E000
03EF80
3FFF00
F00F80
F00780
E00000
C00000
000000
03FE00
1F1E00
1C1E00
180000
ENDCHAR
STARTCHAR char399
ENCODING 376
SWIDTH 5866 0
DWIDTH 88 0
BBX 19 26 2 -4
BITMAP
003E00
0FFE00
0E0F00
1E0000
000000
001FC0
07F9E0
0E79E0
3C79E0
3C79E0
787FC0
787800
F80000
F80000
F00000
F00000
F03C00
F07C00
F87C00
FFFE00
7C7800
000000
003C00
1FFC00
1C1E00
3C0000
ENDCHAR
STARTCHAR char400
ENCODING 377
SWIDTH 7466 0
DWIDTH 112 0
BBX 26 26 1 -4
BITMAP
0001F000
01FFF000
01C07800
01C00000
02000000
00001F80
007FFFC0
7FF3C7C0
78F3C3C0
78F3C000
70F3C000
E0F3C000
00F3C000
00F3C000
01E78000
01E78000
01E78000
01E78000
01E78000
01E7C000
01F00000
00000000
0003F000
03FFF000
01C07800
03800000
ENDCHAR
STARTCHAR char401
ENCODING 378
SWIDTH 4266 0
DWIDTH 64 0
BBX 14 26 1 -4
BITMAP
00F8
3FFC
3C3C
3800
0060
1FF8
79F8
78F0
79F0
71F0
81E4
0078
0078
00F8
00F0
01F0
01F0
01E0
03E0
03F0
03C0
0000
0038
3FFC
3C3C
3800
ENDCHAR
STARTCHAR char402
ENCODING 379
SWIDTH 4000 0
DWIDTH 60 0
BBX 14 25 1 -4
BITMAP
03F8
3F78
383C
7000
07E0
1CF0
3CF8
3CF0
3CF0
3CF0
3DE0
3F00
3E00
1F00
1F00
1F00
1F00
1F00
1F00
0F80
0000
0070
FFF0
7078
F000
ENDCHAR
STARTCHAR char403
ENCODING 380
SWIDTH 6133 0
DWIDTH 92 0
BBX 20 25 2 -4
BITMAP
1FFF80
1E0780
3C0780
000000
0F03E0
3F8EF0
F39C70
F3BC70
F3BC70
F73CE0
F63FC0
FC1F00
F07E00
FFDE00
F81E00
F81E00
F81E00
781F00
781F00
781C00
000000
000000
3FFE00
381E00
700E00
ENDCHAR
ENDFONT
